<svg width="1440" height="798" viewBox="0 0 1440 798" fill="none" xmlns="http://www.w3.org/2000/svg">
<g opacity="0.16">
<g opacity="0.4">
<path d="M87.5766 81.9783L87.5741 81.9781C87.2728 81.9604 86.9738 81.9604 86.6755 81.9604H86.6686C78.1023 81.9604 71.1585 88.9338 71.1585 97.5286C71.1585 100.69 72.0984 103.626 73.6997 106.072L73.7004 106.073C77.9099 112.47 80.3398 120.138 80.3398 128.375C80.3398 150.796 62.233 168.971 39.9031 168.971C17.5732 168.971 -0.53363 150.796 -0.53363 128.375C-0.53363 120.139 1.91241 112.472 6.10549 106.074C7.72596 103.624 8.64765 100.671 8.64765 97.5286C8.64765 88.9338 1.70391 81.9604 -6.86248 81.9604H-6.86924C-7.1464 81.9604 -7.45623 81.9604 -7.75296 81.9773H-7.75534H-7.77169L-7.788 81.9783C-8.54851 82.0281 -9.32869 82.0449 -10.1138 82.0449C-32.3928 82.0449 -50.5 63.8712 -50.5 41.4497C-50.5 19.0286 -32.3932 0.854492 -10.0633 0.854492C12.2666 0.854492 30.3734 19.0286 30.3734 41.4497C30.3734 48.016 28.8259 54.1967 26.0802 59.6929C25.0179 61.7913 24.4266 64.1681 24.4266 66.6818C24.4266 75.2767 31.3704 82.2501 39.9368 82.2501C48.5032 82.2501 55.4469 75.2767 55.4469 66.6818C55.4469 64.1679 54.8556 61.7909 53.7931 59.6924C51.0478 54.2137 49.5001 48.0163 49.5001 41.4497V41.4493C49.4835 19.0286 67.59 0.854492 89.92 0.854492C112.25 0.854492 130.357 19.0286 130.357 41.4497C130.357 63.8708 112.25 82.0449 89.92 82.0449C89.135 82.0449 88.3545 82.0281 87.5766 81.9783Z" stroke="white"/>
<path d="M187.559 81.9784L187.556 81.9782C172.748 81.1263 160.083 72.2905 153.759 59.6929C151.013 54.1967 149.466 48.016 149.466 41.4497C149.466 19.0287 167.573 0.854492 189.903 0.854492C212.232 0.854492 230.339 19.0287 230.339 41.4497C230.339 63.8708 212.232 82.045 189.903 82.045C189.118 82.045 188.337 82.0282 187.559 81.9784Z" stroke="white"/>
<path d="M106.122 106.074L106.122 106.073C113.345 95.0468 125.792 87.7812 139.919 87.7812C154.045 87.7812 166.476 95.0632 173.716 106.074C177.91 112.472 180.356 120.14 180.356 128.376C180.356 150.798 162.249 168.972 139.919 168.972C117.589 168.972 99.4824 150.798 99.4824 128.376C99.4824 120.139 101.929 112.472 106.122 106.074Z" stroke="white"/>
<path d="M344.495 87.8479L344.497 87.848C344.799 87.8658 345.098 87.8658 345.396 87.8658L345.403 87.8658C353.969 87.8658 360.913 80.8924 360.913 72.2975C360.913 69.1361 359.973 66.2002 358.372 63.7539L358.371 63.7529C354.161 57.3557 351.732 49.6885 351.732 41.4508C351.732 19.0297 369.838 0.85553 392.168 0.855532C414.498 0.855534 432.605 19.0297 432.605 41.4508C432.605 49.6874 430.159 57.3545 425.966 63.7525C424.345 66.2016 423.424 69.1554 423.424 72.2975C423.424 80.8924 430.367 87.8658 438.934 87.8658L438.941 87.8658C439.218 87.8658 439.528 87.8658 439.824 87.8489L439.827 87.8489L439.843 87.8489L439.859 87.8478C440.62 87.798 441.4 87.7812 442.185 87.7812C464.464 87.7812 482.571 105.955 482.571 128.376C482.571 150.798 464.464 168.972 442.135 168.972C419.805 168.972 401.698 150.798 401.698 128.376C401.698 121.81 403.245 115.629 405.991 110.133C407.053 108.035 407.645 105.658 407.645 103.144C407.645 94.5495 400.701 87.5761 392.135 87.5761C383.568 87.5761 376.624 94.5495 376.624 103.144C376.624 105.658 377.216 108.035 378.278 110.134C381.023 115.612 382.571 121.81 382.571 128.376L382.571 128.377C382.588 150.798 364.481 168.972 342.151 168.972C319.821 168.972 301.715 150.798 301.715 128.376C301.715 105.955 319.821 87.7812 342.151 87.7812C342.936 87.7812 343.717 87.798 344.495 87.8479Z" stroke="white"/>
<path d="M244.512 87.8479L244.515 87.8481C259.324 88.6999 271.988 97.5357 278.312 110.133C281.058 115.63 282.605 121.81 282.605 128.376C282.605 150.798 264.499 168.972 242.169 168.972C219.839 168.972 201.732 150.798 201.732 128.376C201.732 105.955 219.839 87.7812 242.169 87.7813C242.954 87.7813 243.734 87.798 244.512 87.8479Z" stroke="white"/>
<path d="M325.949 63.7526L325.949 63.7527C318.726 74.7794 306.279 82.0449 292.152 82.0449C278.026 82.0449 265.595 74.763 258.355 63.752C254.162 57.3539 251.715 49.6865 251.715 41.4497C251.715 19.0286 269.822 0.854492 292.152 0.854493C314.482 0.854495 332.589 19.0287 332.589 41.4497C332.589 49.6868 330.143 57.3544 325.949 63.7526Z" stroke="white"/>
<path d="M592.041 81.9783L592.039 81.9781C591.738 81.9604 591.439 81.9604 591.14 81.9604H591.133C582.567 81.9604 575.623 88.9338 575.623 97.5286C575.623 100.69 576.563 103.626 578.165 106.072L578.165 106.073C582.375 112.47 584.805 120.138 584.805 128.375C584.805 150.796 566.698 168.971 544.368 168.971C522.038 168.971 503.931 150.796 503.931 128.375C503.931 120.139 506.377 112.472 510.57 106.074C512.191 103.624 513.112 100.671 513.112 97.5286C513.112 88.9338 506.169 81.9604 497.602 81.9604H497.596C497.318 81.9604 497.009 81.9604 496.712 81.9773H496.71H496.693L496.677 81.9783C495.916 82.0281 495.136 82.0449 494.351 82.0449C472.072 82.0449 453.965 63.8712 453.965 41.4497C453.965 19.0286 472.072 0.854492 494.402 0.854492C516.731 0.854492 534.838 19.0286 534.838 41.4497C534.838 48.016 533.291 54.1967 530.545 59.6929C529.483 61.7913 528.891 64.1681 528.891 66.6818C528.891 75.2767 535.835 82.2501 544.402 82.2501C552.968 82.2501 559.912 75.2767 559.912 66.6818C559.912 64.1679 559.32 61.7909 558.258 59.6924C555.513 54.2137 553.965 48.0163 553.965 41.4497V41.4493C553.948 19.0286 572.055 0.854492 594.385 0.854492C616.715 0.854492 634.822 19.0286 634.822 41.4497C634.822 63.8708 616.715 82.0449 594.385 82.0449C593.6 82.0449 592.819 82.0281 592.041 81.9783Z" stroke="white"/>
<path d="M692.024 81.9784L692.021 81.9782C677.213 81.1263 664.548 72.2905 658.224 59.6929C655.478 54.1967 653.931 48.016 653.931 41.4497C653.931 19.0287 672.038 0.854492 694.367 0.854492C716.697 0.854492 734.804 19.0287 734.804 41.4497C734.804 63.8708 716.697 82.045 694.367 82.045C693.582 82.045 692.802 82.0282 692.024 81.9784Z" stroke="white"/>
<path d="M610.587 106.074L610.587 106.073C617.81 95.0468 630.257 87.7812 644.384 87.7812C658.51 87.7812 670.941 95.0632 678.181 106.074C682.375 112.472 684.821 120.14 684.821 128.376C684.821 150.797 666.714 168.972 644.384 168.972C622.054 168.972 603.947 150.797 603.947 128.376C603.947 120.139 606.394 112.472 610.587 106.074Z" stroke="white"/>
<path d="M848.959 87.8479L848.961 87.848C849.262 87.8658 849.561 87.8658 849.86 87.8658L849.867 87.8658C858.433 87.8658 865.377 80.8924 865.377 72.2975C865.377 69.1361 864.437 66.2002 862.835 63.7539L862.835 63.7529C858.625 57.3557 856.195 49.6885 856.195 41.4508C856.195 19.0297 874.302 0.85553 896.632 0.855532C918.962 0.855534 937.069 19.0297 937.069 41.4508C937.069 49.6874 934.623 57.3545 930.43 63.7525C928.809 66.2016 927.888 69.1554 927.888 72.2975C927.888 80.8924 934.831 87.8658 943.398 87.8658L943.404 87.8658C943.682 87.8658 943.991 87.8658 944.288 87.8489L944.291 87.8489L944.307 87.8489L944.323 87.8478C945.084 87.798 945.864 87.7812 946.649 87.7812C968.928 87.7812 987.035 105.955 987.035 128.376C987.035 150.798 968.928 168.972 946.598 168.972C924.269 168.972 906.162 150.798 906.162 128.376C906.162 121.81 907.709 115.629 910.455 110.133C911.517 108.035 912.109 105.658 912.109 103.144C912.109 94.5495 905.165 87.5761 896.598 87.5761C888.032 87.5761 881.088 94.5495 881.088 103.144C881.088 105.658 881.68 108.035 882.742 110.134C885.487 115.612 887.035 121.81 887.035 128.376L887.035 128.377C887.052 150.798 868.945 168.972 846.615 168.972C824.285 168.972 806.178 150.798 806.178 128.376C806.178 105.955 824.285 87.7812 846.615 87.7812C847.4 87.7812 848.181 87.798 848.959 87.8479Z" stroke="white"/>
<path d="M748.977 87.8479L748.98 87.8481C763.788 88.6999 776.453 97.5357 782.777 110.133C785.523 115.63 787.07 121.81 787.07 128.376C787.07 150.798 768.963 168.972 746.634 168.972C724.304 168.972 706.197 150.798 706.197 128.376C706.197 105.955 724.304 87.7812 746.634 87.7813C747.419 87.7813 748.199 87.798 748.977 87.8479Z" stroke="white"/>
<path d="M830.413 63.7526L830.413 63.7527C823.19 74.7794 810.743 82.0449 796.616 82.0449C782.49 82.0449 770.059 74.763 762.819 63.752C758.626 57.3539 756.179 49.6865 756.179 41.4497C756.179 19.0286 774.286 0.854492 796.616 0.854493C818.946 0.854495 837.053 19.0287 837.053 41.4497C837.053 49.6868 834.606 57.3544 830.413 63.7526Z" stroke="white"/>
<path d="M1096.51 81.9783L1096.5 81.9781C1096.2 81.9604 1095.9 81.9604 1095.6 81.9604H1095.6C1087.03 81.9604 1080.09 88.9338 1080.09 97.5286C1080.09 100.69 1081.03 103.626 1082.63 106.072L1082.63 106.073C1086.84 112.47 1089.27 120.138 1089.27 128.375C1089.27 150.796 1071.16 168.971 1048.83 168.971C1026.5 168.971 1008.4 150.796 1008.4 128.375C1008.4 120.139 1010.84 112.472 1015.03 106.074C1016.65 103.624 1017.58 100.671 1017.58 97.5286C1017.58 88.9338 1010.63 81.9604 1002.07 81.9604H1002.06C1001.78 81.9604 1001.47 81.9604 1001.18 81.9773H1001.17H1001.16L1001.14 81.9783C1000.38 82.0281 999.6 82.0449 998.815 82.0449C976.536 82.0449 958.429 63.8712 958.429 41.4497C958.429 19.0286 976.536 0.854492 998.865 0.854492C1021.2 0.854492 1039.3 19.0286 1039.3 41.4497C1039.3 48.016 1037.75 54.1967 1035.01 59.6929C1033.95 61.7913 1033.36 64.1681 1033.36 66.6818C1033.36 75.2767 1040.3 82.2501 1048.87 82.2501C1057.43 82.2501 1064.38 75.2767 1064.38 66.6818C1064.38 64.1679 1063.78 61.7909 1062.72 59.6924C1059.98 54.2137 1058.43 48.0163 1058.43 41.4497V41.4493C1058.41 19.0286 1076.52 0.854492 1098.85 0.854492C1121.18 0.854492 1139.29 19.0286 1139.29 41.4497C1139.29 63.8708 1121.18 82.0449 1098.85 82.0449C1098.06 82.0449 1097.28 82.0281 1096.51 81.9783Z" stroke="white"/>
<path d="M1196.49 81.9782L1196.48 81.978C1181.68 81.1262 1169.01 72.2904 1162.69 59.6928C1159.94 54.1966 1158.39 48.0159 1158.39 41.4497C1158.39 19.0286 1176.5 0.854492 1198.83 0.854492C1221.16 0.854492 1239.27 19.0286 1239.27 41.4497C1239.27 63.8707 1221.16 82.0449 1198.83 82.0449C1198.05 82.0449 1197.27 82.0281 1196.49 81.9782Z" stroke="white"/>
<path d="M1115.05 106.074L1115.05 106.073C1122.27 95.0468 1134.72 87.7812 1148.85 87.7812C1162.97 87.7812 1175.41 95.0632 1182.65 106.074C1186.84 112.472 1189.28 120.14 1189.28 128.376C1189.28 150.798 1171.18 168.972 1148.85 168.972C1126.52 168.972 1108.41 150.798 1108.41 128.376C1108.41 120.139 1110.86 112.472 1115.05 106.074Z" stroke="white"/>
<path d="M1353.43 87.848L1353.42 87.8479C1352.65 87.798 1351.87 87.7812 1351.08 87.7812C1328.75 87.7812 1310.64 105.955 1310.64 128.376C1310.64 150.798 1328.75 168.972 1351.08 168.972C1373.41 168.972 1391.52 150.798 1391.5 128.377L1391.5 128.376C1391.5 121.81 1389.95 115.612 1387.21 110.133C1387.21 110.133 1387.21 110.133 1387.21 110.133L1387.65 109.909C1386.63 107.88 1386.05 105.58 1386.05 103.144C1386.05 94.8238 1392.77 88.0761 1401.06 88.0761C1409.35 88.0761 1416.07 94.8238 1416.07 103.144C1416.07 105.58 1415.5 107.88 1414.47 109.909L1353.43 87.848ZM1353.43 87.848C1353.73 87.8658 1354.03 87.8658 1354.32 87.8658L1354.33 87.8658C1362.9 87.8658 1369.84 80.8924 1369.84 72.2975C1369.84 69.1361 1368.9 66.2002 1367.3 63.7539L1367.3 63.7529C1363.09 57.3557 1360.66 49.6885 1360.66 41.4508C1360.66 19.0297 1378.77 0.85553 1401.1 0.855532C1423.43 0.855534 1441.53 19.0297 1441.53 41.4508C1441.53 49.6874 1439.09 57.3545 1434.89 63.7525C1433.27 66.2016 1432.35 69.1554 1432.35 72.2975C1432.35 80.8924 1439.3 87.8658 1447.86 87.8658L1447.87 87.8658C1448.15 87.8658 1448.46 87.8658 1448.75 87.8489L1448.76 87.8489L1448.77 87.8489L1448.79 87.8478C1449.55 87.798 1450.33 87.7812 1451.11 87.7812C1473.39 87.7812 1491.5 105.955 1491.5 128.376C1491.5 150.798 1473.39 168.972 1451.06 168.972C1428.73 168.972 1410.63 150.798 1410.63 128.376C1410.63 121.81 1412.17 115.629 1414.92 110.133L1353.43 87.848Z" stroke="white"/>
<path d="M1253.44 87.8479L1253.45 87.8481C1268.25 88.6999 1280.92 97.5357 1287.24 110.133C1289.99 115.63 1291.54 121.81 1291.54 128.376C1291.54 150.798 1273.43 168.972 1251.1 168.972C1228.77 168.972 1210.66 150.798 1210.66 128.376C1210.66 105.955 1228.77 87.7812 1251.1 87.7813C1251.88 87.7813 1252.66 87.798 1253.44 87.8479Z" stroke="white"/>
<path d="M1334.88 63.7526L1334.88 63.7527C1327.65 74.7794 1315.21 82.0449 1301.08 82.0449C1286.95 82.0449 1274.52 74.763 1267.28 63.752C1263.09 57.3539 1260.64 49.6865 1260.64 41.4497C1260.64 19.0286 1278.75 0.854492 1301.08 0.854493C1323.41 0.854495 1341.52 19.0287 1341.52 41.4497C1341.52 49.6868 1339.07 57.3544 1334.88 63.7526Z" stroke="white"/>
</g>
<path d="M87.5766 269.892L87.5741 269.892C87.2728 269.91 86.9738 269.91 86.6755 269.91H86.6686C78.1023 269.91 71.1585 262.936 71.1585 254.342C71.1585 251.18 72.0984 248.244 73.6997 245.798L73.7004 245.797C77.9099 239.4 80.3398 231.732 80.3398 223.495C80.3398 201.074 62.233 182.9 39.9031 182.9C17.5732 182.9 -0.53363 201.074 -0.53363 223.495C-0.53363 231.731 1.91241 239.399 6.10549 245.796C7.72596 248.246 8.64765 251.199 8.64765 254.342C8.64765 262.936 1.70391 269.91 -6.86248 269.91H-6.86924C-7.1464 269.91 -7.45623 269.91 -7.75296 269.893H-7.75534H-7.77169L-7.788 269.892C-8.54851 269.842 -9.32869 269.825 -10.1138 269.825C-32.3928 269.825 -50.5 287.999 -50.5 310.42C-50.5 332.841 -32.3932 351.016 -10.0633 351.016C12.2666 351.016 30.3734 332.841 30.3734 310.42C30.3734 303.854 28.8259 297.673 26.0802 292.177C25.0179 290.079 24.4266 287.702 24.4266 285.188C24.4266 276.593 31.3704 269.62 39.9368 269.62C48.5032 269.62 55.4469 276.593 55.4469 285.188C55.4469 287.702 54.8556 290.079 53.7931 292.178C51.0478 297.656 49.5001 303.854 49.5001 310.42V310.421C49.4835 332.841 67.59 351.016 89.92 351.016C112.25 351.016 130.357 332.841 130.357 310.42C130.357 287.999 112.25 269.825 89.92 269.825C89.135 269.825 88.3545 269.842 87.5766 269.892Z" stroke="white"/>
<path d="M187.559 269.892L187.556 269.892C172.748 270.744 160.083 279.58 153.759 292.177C151.013 297.674 149.466 303.854 149.466 310.42C149.466 332.842 167.573 351.016 189.903 351.016C212.232 351.016 230.339 332.842 230.339 310.42C230.339 287.999 212.232 269.825 189.903 269.825C189.118 269.825 188.337 269.842 187.559 269.892Z" stroke="white"/>
<path d="M106.122 245.797L106.122 245.797C113.345 256.823 125.792 264.089 139.919 264.089C154.045 264.089 166.476 256.807 173.716 245.796C177.91 239.398 180.356 231.73 180.356 223.494C180.356 201.073 162.249 182.898 139.919 182.898C117.589 182.898 99.4824 201.073 99.4824 223.494C99.4824 231.731 101.929 239.398 106.122 245.797Z" stroke="white"/>
<path d="M344.495 264.022L344.497 264.022C344.799 264.004 345.098 264.004 345.396 264.004L345.403 264.004C353.969 264.004 360.913 270.978 360.913 279.573C360.913 282.734 359.973 285.67 358.372 288.116L358.371 288.117C354.161 294.514 351.732 302.182 351.732 310.419C351.732 332.84 369.838 351.015 392.168 351.015C414.498 351.015 432.605 332.84 432.605 310.419C432.605 302.183 430.159 294.516 425.966 288.118C424.345 285.669 423.424 282.715 423.424 279.573C423.424 270.978 430.367 264.004 438.934 264.004L438.941 264.004C439.218 264.004 439.528 264.004 439.824 264.021L439.827 264.021L439.843 264.021L439.859 264.022C440.62 264.072 441.4 264.089 442.185 264.089C464.464 264.089 482.571 245.915 482.571 223.494C482.571 201.073 464.464 182.898 442.135 182.898C419.805 182.898 401.698 201.073 401.698 223.494C401.698 230.06 403.245 236.241 405.991 241.737C407.053 243.835 407.645 246.212 407.645 248.726C407.645 257.321 400.701 264.294 392.135 264.294C383.568 264.294 376.624 257.321 376.624 248.726C376.624 246.212 377.216 243.835 378.278 241.736C381.023 236.258 382.571 230.06 382.571 223.494L382.571 223.493C382.588 201.073 364.481 182.898 342.151 182.898C319.821 182.898 301.715 201.073 301.715 223.494C301.715 245.915 319.821 264.089 342.151 264.089C342.936 264.089 343.717 264.072 344.495 264.022Z" stroke="white"/>
<path d="M244.512 264.022L244.515 264.022C259.323 263.17 271.988 254.335 278.312 241.737C281.058 236.241 282.605 230.06 282.605 223.494C282.605 201.073 264.499 182.898 242.169 182.898C219.839 182.898 201.732 201.073 201.732 223.494C201.732 245.915 219.839 264.089 242.169 264.089C242.954 264.089 243.734 264.072 244.512 264.022Z" stroke="white"/>
<path d="M325.949 288.117L325.949 288.117C318.726 277.091 306.279 269.825 292.152 269.825C278.026 269.825 265.595 277.107 258.355 288.118C254.162 294.516 251.715 302.184 251.715 310.42C251.715 332.841 269.822 351.016 292.152 351.016C314.482 351.016 332.589 332.841 332.589 310.42C332.589 302.183 330.143 294.516 325.949 288.117Z" stroke="white"/>
<path d="M592.041 269.892L592.039 269.892C591.738 269.91 591.439 269.91 591.14 269.91H591.133C582.567 269.91 575.623 262.936 575.623 254.342C575.623 251.18 576.563 248.244 578.165 245.798L578.165 245.797C582.375 239.4 584.805 231.732 584.805 223.495C584.805 201.074 566.698 182.9 544.368 182.9C522.038 182.9 503.931 201.074 503.931 223.495C503.931 231.731 506.377 239.399 510.57 245.796C512.191 248.246 513.112 251.199 513.112 254.342C513.112 262.936 506.169 269.91 497.602 269.91H497.596C497.318 269.91 497.009 269.91 496.712 269.893H496.71H496.693L496.677 269.892C495.916 269.842 495.136 269.825 494.351 269.825C472.072 269.825 453.965 287.999 453.965 310.42C453.965 332.841 472.072 351.016 494.402 351.016C516.731 351.016 534.838 332.841 534.838 310.42C534.838 303.854 533.291 297.673 530.545 292.177C529.483 290.079 528.891 287.702 528.891 285.188C528.891 276.593 535.835 269.62 544.402 269.62C552.968 269.62 559.912 276.593 559.912 285.188C559.912 287.702 559.32 290.079 558.258 292.178C555.513 297.656 553.965 303.854 553.965 310.42V310.421C553.948 332.841 572.055 351.016 594.385 351.016C616.715 351.016 634.822 332.841 634.822 310.42C634.822 287.999 616.715 269.825 594.385 269.825C593.6 269.825 592.819 269.842 592.041 269.892Z" stroke="white"/>
<path d="M692.024 269.892L692.021 269.892C677.213 270.744 664.548 279.58 658.224 292.177C655.478 297.673 653.931 303.854 653.931 310.42C653.931 332.842 672.038 351.016 694.367 351.016C716.697 351.016 734.804 332.842 734.804 310.42C734.804 287.999 716.697 269.825 694.367 269.825C693.582 269.825 692.802 269.842 692.024 269.892Z" stroke="white"/>
<path d="M610.587 245.797L610.587 245.797C617.81 256.823 630.257 264.089 644.384 264.089C658.51 264.089 670.941 256.807 678.181 245.796C682.375 239.398 684.821 231.73 684.821 223.494C684.821 201.073 666.714 182.898 644.384 182.898C622.054 182.898 603.947 201.073 603.947 223.494C603.947 231.731 606.394 239.398 610.587 245.797Z" stroke="white"/>
<path d="M848.959 264.022L848.961 264.022C849.262 264.004 849.561 264.004 849.86 264.004L849.867 264.004C858.433 264.004 865.377 270.978 865.377 279.573C865.377 282.734 864.437 285.67 862.835 288.116L862.835 288.117C858.625 294.514 856.195 302.182 856.195 310.419C856.195 332.84 874.302 351.015 896.632 351.015C918.962 351.015 937.069 332.84 937.069 310.419C937.069 302.183 934.623 294.516 930.43 288.118C928.809 285.669 927.888 282.715 927.888 279.573C927.888 270.978 934.831 264.004 943.398 264.004L943.404 264.004C943.682 264.004 943.991 264.004 944.288 264.021L944.291 264.021L944.307 264.021L944.323 264.022C945.084 264.072 945.864 264.089 946.649 264.089C968.928 264.089 987.035 245.915 987.035 223.494C987.035 201.073 968.928 182.898 946.598 182.898C924.269 182.898 906.162 201.073 906.162 223.494C906.162 230.06 907.709 236.241 910.455 241.737C911.517 243.836 912.109 246.212 912.109 248.726C912.109 257.321 905.165 264.294 896.598 264.294C888.032 264.294 881.088 257.321 881.088 248.726C881.088 246.212 881.68 243.835 882.742 241.736C885.487 236.258 887.035 230.06 887.035 223.494L887.035 223.493C887.052 201.073 868.945 182.898 846.615 182.898C824.285 182.898 806.178 201.073 806.178 223.494C806.178 245.915 824.285 264.089 846.615 264.089C847.4 264.089 848.181 264.072 848.959 264.022Z" stroke="white"/>
<path d="M748.977 264.022L748.98 264.022C763.788 263.17 776.453 254.335 782.777 241.737C785.523 236.241 787.07 230.06 787.07 223.494C787.07 201.073 768.963 182.898 746.634 182.898C724.304 182.898 706.197 201.073 706.197 223.494C706.197 245.915 724.304 264.089 746.634 264.089C747.419 264.089 748.199 264.072 748.977 264.022Z" stroke="white"/>
<path d="M830.413 288.117L830.413 288.117C823.19 277.091 810.743 269.825 796.616 269.825C782.49 269.825 770.059 277.107 762.819 288.118C758.626 294.516 756.179 302.184 756.179 310.42C756.179 332.841 774.286 351.016 796.616 351.016C818.946 351.016 837.053 332.841 837.053 310.42C837.053 302.183 834.606 294.516 830.413 288.117Z" stroke="white"/>
<path d="M1096.51 269.892L1096.5 269.892C1096.2 269.91 1095.9 269.91 1095.6 269.91H1095.6C1087.03 269.91 1080.09 262.936 1080.09 254.342C1080.09 251.18 1081.03 248.244 1082.63 245.798L1082.63 245.797C1086.84 239.4 1089.27 231.732 1089.27 223.495C1089.27 201.074 1071.16 182.9 1048.83 182.9C1026.5 182.9 1008.4 201.074 1008.4 223.495C1008.4 231.731 1010.84 239.399 1015.03 245.796C1016.65 248.246 1017.58 251.199 1017.58 254.342C1017.58 262.936 1010.63 269.91 1002.07 269.91H1002.06C1001.78 269.91 1001.47 269.91 1001.18 269.893H1001.17H1001.16L1001.14 269.892C1000.38 269.842 999.6 269.825 998.815 269.825C976.536 269.825 958.429 287.999 958.429 310.42C958.429 332.841 976.536 351.016 998.865 351.016C1021.2 351.016 1039.3 332.841 1039.3 310.42C1039.3 303.854 1037.75 297.673 1035.01 292.177C1033.95 290.079 1033.36 287.702 1033.36 285.188C1033.36 276.593 1040.3 269.62 1048.87 269.62C1057.43 269.62 1064.38 276.593 1064.38 285.188C1064.38 287.702 1063.78 290.079 1062.72 292.178C1059.98 297.656 1058.43 303.854 1058.43 310.42V310.421C1058.41 332.841 1076.52 351.016 1098.85 351.016C1121.18 351.016 1139.29 332.841 1139.29 310.42C1139.29 287.999 1121.18 269.825 1098.85 269.825C1098.06 269.825 1097.28 269.842 1096.51 269.892Z" stroke="white"/>
<path d="M1196.49 269.892L1196.48 269.892C1181.68 270.744 1169.01 279.58 1162.69 292.177C1159.94 297.674 1158.39 303.854 1158.39 310.42C1158.39 332.842 1176.5 351.016 1198.83 351.016C1221.16 351.016 1239.27 332.842 1239.27 310.42C1239.27 287.999 1221.16 269.825 1198.83 269.825C1198.05 269.825 1197.27 269.842 1196.49 269.892Z" stroke="white"/>
<path d="M1115.05 245.797L1115.05 245.797C1122.27 256.823 1134.72 264.089 1148.85 264.089C1162.97 264.089 1175.41 256.807 1182.65 245.796C1186.84 239.398 1189.28 231.73 1189.28 223.494C1189.28 201.073 1171.18 182.898 1148.85 182.898C1126.52 182.898 1108.41 201.073 1108.41 223.494C1108.41 231.731 1110.86 239.398 1115.05 245.797Z" stroke="white"/>
<path d="M1353.43 264.022L1353.42 264.022C1352.65 264.072 1351.87 264.089 1351.08 264.089C1328.75 264.089 1310.64 245.915 1310.64 223.494C1310.64 201.073 1328.75 182.898 1351.08 182.898C1373.41 182.898 1391.52 201.073 1391.5 223.493L1391.5 223.494C1391.5 230.06 1389.95 236.258 1387.21 241.737C1387.21 241.737 1387.21 241.737 1387.21 241.737L1387.65 241.961C1386.63 243.991 1386.05 246.291 1386.05 248.726C1386.05 257.046 1392.77 263.794 1401.06 263.794C1409.35 263.794 1416.07 257.046 1416.07 248.726C1416.07 246.291 1415.5 243.991 1414.47 241.961L1353.43 264.022ZM1353.43 264.022C1353.73 264.004 1354.03 264.004 1354.32 264.004L1354.33 264.004C1362.9 264.004 1369.84 270.978 1369.84 279.573C1369.84 282.734 1368.9 285.67 1367.3 288.116L1367.3 288.117C1363.09 294.514 1360.66 302.182 1360.66 310.419C1360.66 332.84 1378.77 351.015 1401.1 351.015C1423.43 351.015 1441.53 332.84 1441.53 310.419C1441.53 302.183 1439.09 294.516 1434.89 288.118C1433.27 285.669 1432.35 282.715 1432.35 279.573C1432.35 270.978 1439.3 264.004 1447.86 264.004L1447.87 264.004C1448.15 264.004 1448.46 264.004 1448.75 264.021L1448.76 264.021L1448.77 264.021L1448.79 264.022C1449.55 264.072 1450.33 264.089 1451.11 264.089C1473.39 264.089 1491.5 245.915 1491.5 223.494C1491.5 201.073 1473.39 182.898 1451.06 182.898C1428.73 182.898 1410.63 201.073 1410.63 223.494C1410.63 230.06 1412.17 236.241 1414.92 241.737L1353.43 264.022Z" stroke="white"/>
<path d="M1253.44 264.022L1253.45 264.022C1268.25 263.17 1280.92 254.335 1287.24 241.737C1289.99 236.241 1291.54 230.06 1291.54 223.494C1291.54 201.073 1273.43 182.898 1251.1 182.898C1228.77 182.898 1210.66 201.073 1210.66 223.494C1210.66 245.915 1228.77 264.089 1251.1 264.089C1251.88 264.089 1252.66 264.072 1253.44 264.022Z" stroke="white"/>
<path d="M1334.88 288.117L1334.88 288.117C1327.65 277.091 1315.21 269.825 1301.08 269.825C1286.95 269.825 1274.52 277.107 1267.28 288.118C1263.09 294.516 1260.64 302.184 1260.64 310.42C1260.64 332.841 1278.75 351.016 1301.08 351.016C1323.41 351.016 1341.52 332.841 1341.52 310.42C1341.52 302.183 1339.07 294.516 1334.88 288.117Z" stroke="white"/>
<path d="M87.5766 446.064L87.5741 446.064C87.273 446.046 86.9743 446.046 86.6762 446.046H86.6686C78.1023 446.046 71.1585 453.02 71.1585 461.615C71.1585 464.776 72.0984 467.712 73.6997 470.158L73.7004 470.159C77.9099 476.556 80.3398 484.224 80.3398 492.461C80.3398 514.882 62.233 533.057 39.9031 533.057C17.5732 533.057 -0.53363 514.882 -0.53363 492.461C-0.53363 484.225 1.91241 476.558 6.10549 470.16C7.72596 467.711 8.64765 464.757 8.64765 461.615C8.64765 453.02 1.70391 446.046 -6.86248 446.046H-6.86959C-7.14664 446.046 -7.45635 446.046 -7.75298 446.063H-7.75534H-7.77169L-7.788 446.064C-8.54851 446.114 -9.32869 446.131 -10.1138 446.131C-32.3928 446.131 -50.5 427.957 -50.5 405.536C-50.5 383.115 -32.3932 364.94 -10.0633 364.94C12.2666 364.94 30.3734 383.115 30.3734 405.536C30.3734 412.102 28.8259 418.283 26.0802 423.779C25.0179 425.877 24.4266 428.254 24.4266 430.768C24.4266 439.363 31.3704 446.336 39.9368 446.336C48.5032 446.336 55.4469 439.363 55.4469 430.768C55.4469 428.254 54.8556 425.877 53.7931 423.778C51.0478 418.3 49.5001 412.102 49.5001 405.536V405.535C49.4835 383.115 67.59 364.94 89.92 364.94C112.25 364.94 130.357 383.115 130.357 405.536C130.357 427.957 112.25 446.131 89.92 446.131C89.135 446.131 88.3545 446.114 87.5766 446.064Z" stroke="white"/>
<path d="M187.559 446.064L187.556 446.064C172.748 445.212 160.084 436.377 153.759 423.779C151.013 418.283 149.466 412.102 149.466 405.536C149.466 383.115 167.573 364.94 189.903 364.94C212.232 364.94 230.339 383.115 230.339 405.536C230.339 427.957 212.232 446.131 189.903 446.131C189.118 446.131 188.337 446.114 187.559 446.064Z" stroke="white"/>
<path d="M106.122 470.159L106.122 470.159C113.345 459.133 125.792 451.867 139.919 451.867C154.045 451.867 166.476 459.149 173.716 470.16C177.91 476.558 180.356 484.226 180.356 492.462C180.356 514.883 162.249 533.058 139.919 533.058C117.589 533.058 99.4824 514.883 99.4824 492.462C99.4824 484.225 101.929 476.558 106.122 470.159Z" stroke="white"/>
<path d="M344.495 451.932L344.497 451.932C344.799 451.95 345.098 451.95 345.396 451.95L345.403 451.95C353.969 451.95 360.913 444.976 360.913 436.382C360.913 433.22 359.973 430.284 358.372 427.838L358.371 427.837C354.161 421.44 351.732 413.773 351.732 405.535C351.732 383.114 369.838 364.94 392.168 364.94C414.498 364.94 432.605 383.114 432.605 405.535C432.605 413.771 430.159 421.439 425.966 427.837C424.345 430.286 423.424 433.239 423.424 436.382C423.424 444.976 430.367 451.95 438.934 451.95L438.941 451.95C439.218 451.95 439.528 451.95 439.824 451.933L439.827 451.933L439.843 451.933L439.859 451.932C440.62 451.882 441.4 451.865 442.185 451.865C464.464 451.865 482.571 470.039 482.571 492.46C482.571 514.882 464.464 533.056 442.135 533.056C419.805 533.056 401.698 514.882 401.698 492.46C401.698 485.894 403.245 479.714 405.991 474.217C407.053 472.119 407.645 469.742 407.645 467.228C407.645 458.633 400.701 451.66 392.135 451.66C383.568 451.66 376.624 458.633 376.624 467.228C376.624 469.742 377.216 472.119 378.278 474.218C381.023 479.696 382.571 485.894 382.571 492.46L382.571 492.461C382.588 514.882 364.481 533.056 342.151 533.056C319.821 533.056 301.715 514.882 301.715 492.46C301.715 470.039 319.821 451.865 342.151 451.865C342.936 451.865 343.717 451.882 344.495 451.932Z" stroke="white"/>
<path d="M244.512 451.932L244.515 451.932C259.323 452.784 271.988 461.62 278.312 474.217C281.058 479.713 282.605 485.894 282.605 492.46C282.605 514.881 264.499 533.056 242.169 533.056C219.839 533.056 201.732 514.881 201.732 492.46C201.732 470.039 219.839 451.865 242.169 451.865C242.954 451.865 243.734 451.882 244.512 451.932Z" stroke="white"/>
<path d="M325.949 427.837L325.949 427.837C318.726 438.863 306.279 446.129 292.152 446.129C278.026 446.129 265.595 438.847 258.355 427.836C254.162 421.438 251.715 413.771 251.715 405.534C251.715 383.113 269.822 364.939 292.152 364.939C314.482 364.939 332.589 383.113 332.589 405.534C332.589 413.771 330.143 421.438 325.949 427.837Z" stroke="white"/>
<path d="M592.041 446.064L592.039 446.064C591.738 446.046 591.439 446.046 591.141 446.046H591.133C582.567 446.046 575.623 453.02 575.623 461.615C575.623 464.776 576.563 467.712 578.165 470.158L578.165 470.159C582.375 476.556 584.805 484.224 584.805 492.461C584.805 514.882 566.698 533.057 544.368 533.057C522.038 533.057 503.931 514.882 503.931 492.461C503.931 484.225 506.377 476.558 510.57 470.16C512.191 467.711 513.112 464.757 513.112 461.615C513.112 453.02 506.169 446.046 497.602 446.046H497.595C497.318 446.046 497.008 446.046 496.712 446.063H496.71H496.693L496.677 446.064C495.916 446.114 495.136 446.131 494.351 446.131C472.072 446.131 453.965 427.957 453.965 405.536C453.965 383.115 472.072 364.94 494.402 364.94C516.731 364.94 534.838 383.115 534.838 405.536C534.838 412.102 533.291 418.283 530.545 423.779C529.483 425.877 528.891 428.254 528.891 430.768C528.891 439.363 535.835 446.336 544.402 446.336C552.968 446.336 559.912 439.363 559.912 430.768C559.912 428.254 559.32 425.877 558.258 423.778C555.513 418.3 553.965 412.102 553.965 405.536V405.535C553.948 383.115 572.055 364.94 594.385 364.94C616.715 364.94 634.822 383.115 634.822 405.536C634.822 427.957 616.715 446.131 594.385 446.131C593.6 446.131 592.819 446.114 592.041 446.064Z" stroke="white"/>
<path d="M692.024 446.064L692.021 446.064C677.213 445.212 664.548 436.377 658.224 423.779C655.478 418.283 653.931 412.102 653.931 405.536C653.931 383.115 672.038 364.94 694.367 364.94C716.697 364.94 734.804 383.115 734.804 405.536C734.804 427.957 716.697 446.131 694.367 446.131C693.582 446.131 692.802 446.114 692.024 446.064Z" stroke="white"/>
<path d="M610.587 470.159L610.587 470.159C617.81 459.133 630.257 451.867 644.384 451.867C658.51 451.867 670.941 459.149 678.181 470.16C682.375 476.558 684.821 484.226 684.821 492.462C684.821 514.883 666.714 533.058 644.384 533.058C622.054 533.058 603.947 514.883 603.947 492.462C603.947 484.225 606.394 476.558 610.587 470.159Z" stroke="white"/>
<path d="M848.959 451.932L848.961 451.932C849.262 451.95 849.561 451.95 849.86 451.95L849.867 451.95C858.433 451.95 865.377 444.976 865.377 436.382C865.377 433.22 864.437 430.284 862.835 427.838L862.835 427.837C858.625 421.44 856.195 413.773 856.195 405.535C856.195 383.114 874.302 364.94 896.632 364.94C918.962 364.94 937.069 383.114 937.069 405.535C937.069 413.771 934.623 421.439 930.43 427.837C928.809 430.286 927.888 433.239 927.888 436.382C927.888 444.976 934.831 451.95 943.398 451.95L943.404 451.95C943.682 451.95 943.991 451.95 944.288 451.933L944.291 451.933L944.307 451.933L944.323 451.932C945.084 451.882 945.864 451.865 946.649 451.865C968.928 451.865 987.035 470.039 987.035 492.46C987.035 514.882 968.928 533.056 946.598 533.056C924.269 533.056 906.162 514.882 906.162 492.46C906.162 485.894 907.709 479.713 910.455 474.217C911.517 472.119 912.109 469.742 912.109 467.228C912.109 458.633 905.165 451.66 896.598 451.66C888.032 451.66 881.088 458.633 881.088 467.228C881.088 469.742 881.68 472.119 882.742 474.218C885.487 479.696 887.035 485.894 887.035 492.46L887.035 492.461C887.052 514.882 868.945 533.056 846.615 533.056C824.285 533.056 806.178 514.882 806.178 492.46C806.178 470.039 824.285 451.865 846.615 451.865C847.4 451.865 848.181 451.882 848.959 451.932Z" stroke="white"/>
<path d="M748.977 451.932L748.98 451.932C763.788 452.784 776.453 461.62 782.777 474.217C785.523 479.713 787.07 485.894 787.07 492.46C787.07 514.881 768.963 533.056 746.634 533.056C724.304 533.056 706.197 514.881 706.197 492.46C706.197 470.039 724.304 451.865 746.634 451.865C747.419 451.865 748.199 451.882 748.977 451.932Z" stroke="white"/>
<path d="M830.413 427.837L830.413 427.837C823.19 438.863 810.743 446.129 796.616 446.129C782.49 446.129 770.059 438.847 762.819 427.836C758.626 421.438 756.179 413.771 756.179 405.534C756.179 383.113 774.286 364.939 796.616 364.939C818.946 364.939 837.053 383.113 837.053 405.534C837.053 413.771 834.606 421.438 830.413 427.837Z" stroke="white"/>
<path d="M1096.51 446.064L1096.5 446.064C1096.2 446.046 1095.9 446.046 1095.6 446.046H1095.6C1087.03 446.046 1080.09 453.02 1080.09 461.615C1080.09 464.776 1081.03 467.712 1082.63 470.158L1082.63 470.159C1086.84 476.556 1089.27 484.224 1089.27 492.461C1089.27 514.882 1071.16 533.057 1048.83 533.057C1026.5 533.057 1008.4 514.882 1008.4 492.461C1008.4 484.225 1010.84 476.558 1015.03 470.16C1016.65 467.711 1017.58 464.757 1017.58 461.615C1017.58 453.02 1010.63 446.046 1002.07 446.046H1002.06C1001.78 446.046 1001.47 446.046 1001.18 446.063H1001.17H1001.16L1001.14 446.064C1000.38 446.114 999.6 446.131 998.815 446.131C976.536 446.131 958.429 427.957 958.429 405.536C958.429 383.115 976.536 364.94 998.865 364.94C1021.2 364.94 1039.3 383.115 1039.3 405.536C1039.3 412.102 1037.75 418.283 1035.01 423.779C1033.95 425.877 1033.36 428.254 1033.36 430.768C1033.36 439.363 1040.3 446.336 1048.87 446.336C1057.43 446.336 1064.38 439.363 1064.38 430.768C1064.38 428.254 1063.78 425.877 1062.72 423.778C1059.98 418.3 1058.43 412.102 1058.43 405.536V405.535C1058.41 383.115 1076.52 364.94 1098.85 364.94C1121.18 364.94 1139.29 383.115 1139.29 405.536C1139.29 427.957 1121.18 446.131 1098.85 446.131C1098.06 446.131 1097.28 446.114 1096.51 446.064Z" stroke="white"/>
<path d="M1196.49 446.064L1196.48 446.064C1181.68 445.212 1169.01 436.377 1162.69 423.779C1159.94 418.283 1158.39 412.102 1158.39 405.536C1158.39 383.115 1176.5 364.94 1198.83 364.94C1221.16 364.94 1239.27 383.115 1239.27 405.536C1239.27 427.957 1221.16 446.131 1198.83 446.131C1198.05 446.131 1197.27 446.114 1196.49 446.064Z" stroke="white"/>
<path d="M1115.05 470.159L1115.05 470.159C1122.27 459.133 1134.72 451.867 1148.85 451.867C1162.97 451.867 1175.41 459.149 1182.65 470.16C1186.84 476.558 1189.28 484.226 1189.28 492.462C1189.28 514.883 1171.18 533.058 1148.85 533.058C1126.52 533.058 1108.41 514.883 1108.41 492.462C1108.41 484.225 1110.86 476.558 1115.05 470.159Z" stroke="white"/>
<path d="M1353.43 451.932L1353.42 451.932C1352.65 451.882 1351.87 451.865 1351.08 451.865C1328.75 451.865 1310.64 470.039 1310.64 492.46C1310.64 514.882 1328.75 533.056 1351.08 533.056C1373.41 533.056 1391.52 514.882 1391.5 492.461L1391.5 492.46C1391.5 485.894 1389.95 479.696 1387.21 474.217C1387.21 474.217 1387.21 474.217 1387.21 474.217L1387.65 473.993C1386.63 471.964 1386.05 469.664 1386.05 467.228C1386.05 458.908 1392.77 452.16 1401.06 452.16C1409.35 452.16 1416.07 458.908 1416.07 467.228C1416.07 469.664 1415.5 471.964 1414.47 473.993L1353.43 451.932ZM1353.43 451.932C1353.73 451.95 1354.03 451.95 1354.32 451.95L1354.33 451.95C1362.9 451.95 1369.84 444.976 1369.84 436.382C1369.84 433.22 1368.9 430.284 1367.3 427.838L1367.3 427.837C1363.09 421.44 1360.66 413.773 1360.66 405.535C1360.66 383.114 1378.77 364.94 1401.1 364.94C1423.43 364.94 1441.53 383.114 1441.53 405.535C1441.53 413.771 1439.09 421.439 1434.89 427.837C1433.27 430.286 1432.35 433.239 1432.35 436.382C1432.35 444.976 1439.3 451.95 1447.86 451.95L1447.87 451.95C1448.15 451.95 1448.46 451.95 1448.75 451.933L1448.76 451.933L1448.77 451.933L1448.79 451.932C1449.55 451.882 1450.33 451.865 1451.11 451.865C1473.39 451.865 1491.5 470.039 1491.5 492.46C1491.5 514.882 1473.39 533.056 1451.06 533.056C1428.73 533.056 1410.63 514.882 1410.63 492.46C1410.63 485.894 1412.17 479.714 1414.92 474.217L1353.43 451.932Z" stroke="white"/>
<path d="M1253.44 451.932L1253.45 451.932C1268.25 452.784 1280.92 461.62 1287.24 474.217C1289.99 479.713 1291.54 485.894 1291.54 492.46C1291.54 514.881 1273.43 533.056 1251.1 533.056C1228.77 533.056 1210.66 514.881 1210.66 492.46C1210.66 470.039 1228.77 451.865 1251.1 451.865C1251.88 451.865 1252.66 451.882 1253.44 451.932Z" stroke="white"/>
<path d="M1334.88 427.837L1334.88 427.837C1327.65 438.863 1315.21 446.129 1301.08 446.129C1286.95 446.129 1274.52 438.847 1267.28 427.836C1263.09 421.438 1260.64 413.771 1260.64 405.534C1260.64 383.113 1278.75 364.939 1301.08 364.939C1323.41 364.939 1341.52 383.113 1341.52 405.534C1341.52 413.771 1339.07 421.438 1334.88 427.837Z" stroke="white"/>
<path d="M87.5766 633.975L87.5741 633.975C87.273 633.993 86.9743 633.993 86.6762 633.993H86.6686C78.1023 633.993 71.1585 627.019 71.1585 618.424C71.1585 615.263 72.0984 612.327 73.6997 609.881L73.7004 609.88C77.9099 603.483 80.3398 595.815 80.3398 587.578C80.3398 565.157 62.233 546.982 39.9031 546.982C17.5732 546.982 -0.53363 565.157 -0.53363 587.578C-0.53363 595.814 1.91241 603.481 6.10549 609.879C7.72596 612.329 8.64765 615.282 8.64765 618.424C8.64765 627.019 1.70391 633.993 -6.86248 633.993H-6.86959C-7.14664 633.993 -7.45635 633.993 -7.75298 633.976H-7.75534H-7.77169L-7.788 633.975C-8.54851 633.925 -9.32869 633.908 -10.1138 633.908C-32.3928 633.908 -50.5 652.082 -50.5 674.503C-50.5 696.924 -32.3932 715.099 -10.0633 715.099C12.2666 715.099 30.3734 696.924 30.3734 674.503C30.3734 667.937 28.8259 661.756 26.0802 656.26C25.0179 654.162 24.4266 651.785 24.4266 649.271C24.4266 640.676 31.3704 633.703 39.9368 633.703C48.5032 633.703 55.4469 640.676 55.4469 649.271C55.4469 651.785 54.8556 654.162 53.7931 656.261C51.0478 661.739 49.5001 667.937 49.5001 674.503V674.504C49.4835 696.924 67.59 715.099 89.92 715.099C112.25 715.099 130.357 696.924 130.357 674.503C130.357 652.082 112.25 633.908 89.92 633.908C89.135 633.908 88.3545 633.925 87.5766 633.975Z" stroke="white"/>
<path d="M187.559 633.975L187.556 633.975C172.748 634.827 160.083 643.663 153.759 656.26C151.013 661.756 149.466 667.937 149.466 674.503C149.466 696.924 167.573 715.099 189.903 715.099C212.232 715.099 230.339 696.924 230.339 674.503C230.339 652.082 212.232 633.908 189.903 633.908C189.118 633.908 188.337 633.925 187.559 633.975Z" stroke="white"/>
<path d="M106.122 609.88L106.122 609.88C113.345 620.906 125.792 628.172 139.919 628.172C154.045 628.172 166.476 620.89 173.716 609.879C177.91 603.481 180.356 595.814 180.356 587.577C180.356 565.156 162.249 546.982 139.919 546.982C117.589 546.982 99.4824 565.156 99.4824 587.577C99.4824 595.814 101.929 603.481 106.122 609.88Z" stroke="white"/>
<path d="M344.495 628.105L344.497 628.105C344.799 628.087 345.098 628.087 345.396 628.087L345.403 628.087C353.969 628.087 360.913 635.061 360.913 643.656C360.913 646.817 359.973 649.753 358.372 652.199L358.371 652.2C354.161 658.597 351.732 666.265 351.732 674.502C351.732 696.923 369.838 715.098 392.168 715.098C414.498 715.098 432.605 696.923 432.605 674.502C432.605 666.266 430.159 658.599 425.966 652.201C424.345 649.752 423.424 646.798 423.424 643.656C423.424 635.061 430.367 628.087 438.934 628.087L438.941 628.087C439.218 628.087 439.528 628.087 439.824 628.104L439.827 628.104L439.843 628.104L439.859 628.105C440.62 628.155 441.4 628.172 442.185 628.172C464.464 628.172 482.571 609.998 482.571 587.577C482.571 565.156 464.464 546.981 442.135 546.981C419.805 546.981 401.698 565.156 401.698 587.577C401.698 594.143 403.245 600.324 405.991 605.82C407.053 607.919 407.645 610.295 407.645 612.809C407.645 621.404 400.701 628.377 392.135 628.377C383.568 628.377 376.624 621.404 376.624 612.809C376.624 610.295 377.216 607.918 378.278 605.819C381.023 600.341 382.571 594.143 382.571 587.577L382.571 587.576C382.588 565.156 364.481 546.981 342.151 546.981C319.821 546.981 301.715 565.156 301.715 587.577C301.715 609.998 319.821 628.172 342.151 628.172C342.936 628.172 343.717 628.155 344.495 628.105Z" stroke="white"/>
<path d="M244.512 628.105L244.515 628.105C259.323 627.253 271.988 618.418 278.312 605.82C281.058 600.324 282.605 594.143 282.605 587.577C282.605 565.156 264.499 546.981 242.169 546.981C219.839 546.981 201.732 565.156 201.732 587.577C201.732 609.998 219.839 628.172 242.169 628.172C242.954 628.172 243.734 628.155 244.512 628.105Z" stroke="white"/>
<path d="M325.949 652.2L325.949 652.2C318.726 641.174 306.279 633.908 292.152 633.908C278.026 633.908 265.595 641.19 258.355 652.201C254.162 658.599 251.715 666.267 251.715 674.503C251.715 696.924 269.822 715.099 292.152 715.099C314.482 715.099 332.589 696.924 332.589 674.503C332.589 666.266 330.143 658.599 325.949 652.2Z" stroke="white"/>
<path d="M592.041 633.975L592.039 633.975C591.738 633.993 591.439 633.993 591.141 633.993H591.133C582.567 633.993 575.623 627.019 575.623 618.424C575.623 615.263 576.563 612.327 578.165 609.881L578.165 609.88C582.375 603.483 584.805 595.815 584.805 587.578C584.805 565.157 566.698 546.982 544.368 546.982C522.038 546.982 503.931 565.157 503.931 587.578C503.931 595.814 506.377 603.481 510.57 609.879C512.191 612.329 513.112 615.282 513.112 618.424C513.112 627.019 506.169 633.993 497.602 633.993H497.595C497.318 633.993 497.008 633.993 496.712 633.976H496.71H496.693L496.677 633.975C495.916 633.925 495.136 633.908 494.351 633.908C472.072 633.908 453.965 652.082 453.965 674.503C453.965 696.924 472.072 715.099 494.402 715.099C516.731 715.099 534.838 696.924 534.838 674.503C534.838 667.937 533.291 661.756 530.545 656.26C529.483 654.162 528.891 651.785 528.891 649.271C528.891 640.676 535.835 633.703 544.402 633.703C552.968 633.703 559.912 640.676 559.912 649.271C559.912 651.785 559.32 654.162 558.258 656.261C555.513 661.739 553.965 667.937 553.965 674.503V674.504C553.948 696.924 572.055 715.099 594.385 715.099C616.715 715.099 634.822 696.924 634.822 674.503C634.822 652.082 616.715 633.908 594.385 633.908C593.6 633.908 592.819 633.925 592.041 633.975Z" stroke="white"/>
<path d="M692.024 633.975L692.021 633.975C677.213 634.827 664.548 643.663 658.224 656.26C655.478 661.756 653.931 667.937 653.931 674.503C653.931 696.924 672.038 715.099 694.367 715.099C716.697 715.099 734.804 696.924 734.804 674.503C734.804 652.082 716.697 633.908 694.367 633.908C693.582 633.908 692.802 633.925 692.024 633.975Z" stroke="white"/>
<path d="M610.587 609.88L610.587 609.88C617.81 620.906 630.257 628.172 644.384 628.172C658.51 628.172 670.941 620.89 678.181 609.879C682.375 603.481 684.821 595.814 684.821 587.577C684.821 565.156 666.714 546.982 644.384 546.982C622.054 546.982 603.947 565.156 603.947 587.577C603.947 595.814 606.394 603.481 610.587 609.88Z" stroke="white"/>
<path d="M848.959 628.105L848.961 628.105C849.262 628.087 849.561 628.087 849.86 628.087L849.867 628.087C858.433 628.087 865.377 635.061 865.377 643.656C865.377 646.817 864.437 649.753 862.835 652.199L862.835 652.2C858.625 658.597 856.195 666.265 856.195 674.502C856.195 696.923 874.302 715.098 896.632 715.098C918.962 715.098 937.069 696.923 937.069 674.502C937.069 666.266 934.623 658.599 930.43 652.201C928.809 649.752 927.888 646.798 927.888 643.656C927.888 635.061 934.831 628.087 943.398 628.087L943.404 628.087C943.682 628.087 943.991 628.087 944.288 628.104L944.291 628.104L944.307 628.104L944.323 628.105C945.084 628.155 945.864 628.172 946.649 628.172C968.928 628.172 987.035 609.998 987.035 587.577C987.035 565.156 968.928 546.981 946.598 546.981C924.269 546.981 906.162 565.156 906.162 587.577C906.162 594.143 907.709 600.324 910.455 605.82C911.517 607.919 912.109 610.295 912.109 612.809C912.109 621.404 905.165 628.377 896.598 628.377C888.032 628.377 881.088 621.404 881.088 612.809C881.088 610.295 881.68 607.918 882.742 605.819C885.487 600.341 887.035 594.143 887.035 587.577L887.035 587.576C887.052 565.156 868.945 546.981 846.615 546.981C824.285 546.981 806.178 565.156 806.178 587.577C806.178 609.998 824.285 628.172 846.615 628.172C847.4 628.172 848.181 628.155 848.959 628.105Z" stroke="white"/>
<path d="M748.977 628.105L748.98 628.105C763.788 627.253 776.453 618.418 782.777 605.82C785.523 600.324 787.07 594.143 787.07 587.577C787.07 565.156 768.963 546.981 746.634 546.981C724.304 546.981 706.197 565.156 706.197 587.577C706.197 609.998 724.304 628.172 746.634 628.172C747.419 628.172 748.199 628.155 748.977 628.105Z" stroke="white"/>
<path d="M830.413 652.2L830.413 652.2C823.19 641.174 810.743 633.908 796.616 633.908C782.49 633.908 770.059 641.19 762.819 652.201C758.626 658.599 756.179 666.267 756.179 674.503C756.179 696.924 774.286 715.099 796.616 715.099C818.946 715.099 837.053 696.924 837.053 674.503C837.053 666.266 834.606 658.599 830.413 652.2Z" stroke="white"/>
<path d="M1096.51 633.975L1096.5 633.975C1096.2 633.993 1095.9 633.993 1095.6 633.993H1095.6C1087.03 633.993 1080.09 627.019 1080.09 618.424C1080.09 615.263 1081.03 612.327 1082.63 609.881L1082.63 609.88C1086.84 603.483 1089.27 595.815 1089.27 587.578C1089.27 565.157 1071.16 546.982 1048.83 546.982C1026.5 546.982 1008.4 565.157 1008.4 587.578C1008.4 595.814 1010.84 603.481 1015.03 609.879C1016.65 612.329 1017.58 615.282 1017.58 618.424C1017.58 627.019 1010.63 633.993 1002.07 633.993H1002.06C1001.78 633.993 1001.47 633.993 1001.18 633.976H1001.17H1001.16L1001.14 633.975C1000.38 633.925 999.6 633.908 998.815 633.908C976.536 633.908 958.429 652.082 958.429 674.503C958.429 696.924 976.536 715.099 998.865 715.099C1021.2 715.099 1039.3 696.924 1039.3 674.503C1039.3 667.937 1037.75 661.756 1035.01 656.26C1033.95 654.162 1033.36 651.785 1033.36 649.271C1033.36 640.676 1040.3 633.703 1048.87 633.703C1057.43 633.703 1064.38 640.676 1064.38 649.271C1064.38 651.785 1063.78 654.162 1062.72 656.261C1059.98 661.739 1058.43 667.937 1058.43 674.503V674.504C1058.41 696.924 1076.52 715.099 1098.85 715.099C1121.18 715.099 1139.29 696.924 1139.29 674.503C1139.29 652.082 1121.18 633.908 1098.85 633.908C1098.06 633.908 1097.28 633.925 1096.51 633.975Z" stroke="white"/>
<path d="M1196.49 633.975L1196.48 633.975C1181.68 634.827 1169.01 643.663 1162.69 656.26C1159.94 661.756 1158.39 667.937 1158.39 674.503C1158.39 696.924 1176.5 715.099 1198.83 715.099C1221.16 715.099 1239.27 696.924 1239.27 674.503C1239.27 652.082 1221.16 633.908 1198.83 633.908C1198.05 633.908 1197.27 633.925 1196.49 633.975Z" stroke="white"/>
<path d="M1115.05 609.88L1115.05 609.88C1122.27 620.906 1134.72 628.172 1148.85 628.172C1162.97 628.172 1175.41 620.89 1182.65 609.879C1186.84 603.481 1189.28 595.814 1189.28 587.577C1189.28 565.156 1171.18 546.982 1148.85 546.982C1126.52 546.982 1108.41 565.156 1108.41 587.577C1108.41 595.814 1110.86 603.481 1115.05 609.88Z" stroke="white"/>
<path d="M1353.43 628.105L1353.42 628.105C1352.65 628.155 1351.87 628.172 1351.08 628.172C1328.75 628.172 1310.64 609.998 1310.64 587.577C1310.64 565.156 1328.75 546.981 1351.08 546.981C1373.41 546.981 1391.52 565.156 1391.5 587.576L1391.5 587.577C1391.5 594.143 1389.95 600.341 1387.21 605.82C1387.21 605.82 1387.21 605.82 1387.21 605.82L1387.65 606.044C1386.63 608.074 1386.05 610.374 1386.05 612.809C1386.05 621.129 1392.77 627.877 1401.06 627.877C1409.35 627.877 1416.07 621.129 1416.07 612.809C1416.07 610.374 1415.5 608.074 1414.47 606.044L1353.43 628.105ZM1353.43 628.105C1353.73 628.087 1354.03 628.087 1354.32 628.087L1354.33 628.087C1362.9 628.087 1369.84 635.061 1369.84 643.656C1369.84 646.817 1368.9 649.753 1367.3 652.199L1367.3 652.2C1363.09 658.597 1360.66 666.265 1360.66 674.502C1360.66 696.923 1378.77 715.098 1401.1 715.098C1423.43 715.098 1441.53 696.923 1441.53 674.502C1441.53 666.266 1439.09 658.599 1434.89 652.201C1433.27 649.752 1432.35 646.798 1432.35 643.656C1432.35 635.061 1439.3 628.087 1447.86 628.087L1447.87 628.087C1448.15 628.087 1448.46 628.087 1448.75 628.104L1448.76 628.104L1448.77 628.104L1448.79 628.105C1449.55 628.155 1450.33 628.172 1451.11 628.172C1473.39 628.172 1491.5 609.998 1491.5 587.577C1491.5 565.156 1473.39 546.981 1451.06 546.981C1428.73 546.981 1410.63 565.156 1410.63 587.577C1410.63 594.143 1412.17 600.324 1414.92 605.82L1353.43 628.105Z" stroke="white"/>
<path d="M1253.44 628.105L1253.45 628.105C1268.25 627.253 1280.92 618.418 1287.24 605.82C1289.99 600.324 1291.54 594.143 1291.54 587.577C1291.54 565.156 1273.43 546.981 1251.1 546.981C1228.77 546.981 1210.66 565.156 1210.66 587.577C1210.66 609.998 1228.77 628.172 1251.1 628.172C1251.88 628.172 1252.66 628.155 1253.44 628.105Z" stroke="white"/>
<path d="M1334.88 652.2L1334.88 652.2C1327.65 641.174 1315.21 633.908 1301.08 633.908C1286.95 633.908 1274.52 641.19 1267.28 652.201C1263.09 658.599 1260.64 666.267 1260.64 674.503C1260.64 696.924 1278.75 715.099 1301.08 715.099C1323.41 715.099 1341.52 696.924 1341.52 674.503C1341.52 666.266 1339.07 658.599 1334.88 652.2Z" stroke="white"/>
<path d="M87.5766 810.147L87.5741 810.147C87.2728 810.129 86.9738 810.129 86.6755 810.129H86.6686C78.1023 810.129 71.1585 817.103 71.1585 825.698C71.1585 828.859 72.0984 831.795 73.6997 834.241L73.7004 834.242C77.9099 840.639 80.3398 848.307 80.3398 856.544C80.3398 878.965 62.233 897.14 39.9031 897.14C17.5732 897.14 -0.53363 878.965 -0.53363 856.544C-0.53363 848.308 1.91241 840.641 6.10549 834.243C7.72596 831.793 8.64765 828.84 8.64765 825.698C8.64765 817.103 1.70391 810.129 -6.86248 810.129H-6.86924C-7.1464 810.129 -7.45623 810.129 -7.75296 810.146H-7.75534H-7.77169L-7.788 810.147C-8.54851 810.197 -9.32869 810.214 -10.1138 810.214C-32.3928 810.214 -50.5 792.04 -50.5 769.619C-50.5 747.198 -32.3932 729.023 -10.0633 729.023C12.2666 729.023 30.3734 747.198 30.3734 769.619C30.3734 776.185 28.8259 782.366 26.0802 787.862C25.0179 789.96 24.4266 792.337 24.4266 794.851C24.4266 803.446 31.3704 810.419 39.9368 810.419C48.5032 810.419 55.4469 803.446 55.4469 794.851C55.4469 792.337 54.8556 789.96 53.7931 787.861C51.0478 782.383 49.5001 776.185 49.5001 769.619V769.618C49.4835 747.198 67.59 729.023 89.92 729.023C112.25 729.023 130.357 747.198 130.357 769.619C130.357 792.04 112.25 810.214 89.92 810.214C89.135 810.214 88.3545 810.197 87.5766 810.147Z" stroke="white"/>
<path d="M187.559 810.147L187.556 810.147C172.748 809.295 160.083 800.459 153.759 787.862C151.013 782.366 149.466 776.185 149.466 769.619C149.466 747.198 167.573 729.023 189.903 729.023C212.232 729.023 230.339 747.198 230.339 769.619C230.339 792.04 212.232 810.214 189.903 810.214C189.118 810.214 188.337 810.197 187.559 810.147Z" stroke="white"/>
<path d="M344.495 816.017L344.497 816.017C344.798 816.035 345.097 816.035 345.395 816.035L345.403 816.035C353.969 816.035 360.913 809.061 360.913 800.466C360.913 797.305 359.973 794.369 358.372 791.923L358.371 791.922C354.161 785.525 351.732 777.857 351.732 769.62C351.732 747.198 369.838 729.024 392.168 729.024C414.498 729.024 432.605 747.198 432.605 769.62C432.605 777.856 430.159 785.523 425.966 791.921C424.345 794.37 423.424 797.324 423.424 800.466C423.424 809.061 430.367 816.035 438.934 816.035L438.941 816.035C439.218 816.035 439.528 816.035 439.824 816.018L439.827 816.018L439.843 816.018L439.859 816.017C440.62 815.967 441.4 815.95 442.185 815.95C464.464 815.95 482.571 834.124 482.571 856.545C482.571 878.966 464.464 897.141 442.135 897.141C419.805 897.141 401.698 878.966 401.698 856.545C401.698 849.979 403.245 843.798 405.991 838.302C407.053 836.204 407.645 833.827 407.645 831.313C407.645 822.718 400.701 815.745 392.135 815.745C383.568 815.745 376.624 822.718 376.624 831.313C376.624 833.827 377.216 836.204 378.278 838.303C381.023 843.781 382.571 849.979 382.571 856.545L382.571 856.546C382.588 878.966 364.481 897.141 342.151 897.141C319.821 897.141 301.715 878.966 301.715 856.545C301.715 834.124 319.821 815.95 342.151 815.95C342.936 815.95 343.717 815.967 344.495 816.017Z" stroke="white"/>
<path d="M325.949 791.922L325.949 791.922C318.726 802.948 306.279 810.214 292.152 810.214C278.026 810.214 265.595 802.932 258.355 791.921C254.162 785.523 251.715 777.855 251.715 769.619C251.715 747.198 269.822 729.023 292.152 729.023C314.482 729.023 332.589 747.198 332.589 769.619C332.589 777.856 330.143 785.523 325.949 791.922Z" stroke="white"/>
<path d="M592.041 810.147L592.039 810.147C591.738 810.129 591.439 810.129 591.14 810.129H591.133C582.567 810.129 575.623 817.103 575.623 825.698C575.623 828.859 576.563 831.795 578.165 834.241L578.165 834.242C582.375 840.639 584.805 848.307 584.805 856.544C584.805 878.965 566.698 897.14 544.368 897.14C522.038 897.14 503.931 878.965 503.931 856.544C503.931 848.308 506.377 840.641 510.57 834.243C512.191 831.793 513.112 828.84 513.112 825.698C513.112 817.103 506.169 810.129 497.602 810.129H497.596C497.318 810.129 497.009 810.129 496.712 810.146H496.71H496.693L496.677 810.147C495.916 810.197 495.136 810.214 494.351 810.214C472.072 810.214 453.965 792.04 453.965 769.619C453.965 747.198 472.072 729.023 494.402 729.023C516.731 729.023 534.838 747.198 534.838 769.619C534.838 776.185 533.291 782.366 530.545 787.862C529.483 789.96 528.891 792.337 528.891 794.851C528.891 803.446 535.835 810.419 544.402 810.419C552.968 810.419 559.912 803.446 559.912 794.851C559.912 792.337 559.32 789.96 558.258 787.861C555.513 782.383 553.965 776.185 553.965 769.619V769.618C553.948 747.198 572.055 729.023 594.385 729.023C616.715 729.023 634.822 747.198 634.822 769.619C634.822 792.04 616.715 810.214 594.385 810.214C593.6 810.214 592.819 810.197 592.041 810.147Z" stroke="white"/>
<path d="M692.024 810.147L692.021 810.147C677.213 809.295 664.548 800.459 658.224 787.862C655.478 782.366 653.931 776.185 653.931 769.619C653.931 747.198 672.038 729.023 694.367 729.023C716.697 729.023 734.804 747.198 734.804 769.619C734.804 792.04 716.697 810.214 694.367 810.214C693.582 810.214 692.802 810.197 692.024 810.147Z" stroke="white"/>
<path d="M848.959 816.017L848.961 816.017C849.262 816.035 849.561 816.035 849.859 816.035L849.866 816.035C858.433 816.035 865.377 809.061 865.377 800.466C865.377 797.305 864.437 794.369 862.835 791.923L862.835 791.922C858.625 785.525 856.195 777.857 856.195 769.62C856.195 747.198 874.302 729.024 896.632 729.024C918.962 729.024 937.069 747.198 937.069 769.62C937.069 777.856 934.623 785.523 930.43 791.921C928.809 794.37 927.888 797.324 927.888 800.466C927.888 809.061 934.831 816.035 943.398 816.035L943.405 816.035C943.682 816.035 943.992 816.035 944.288 816.018L944.29 816.018L944.307 816.018L944.323 816.017C945.084 815.967 945.864 815.95 946.649 815.95C968.928 815.95 987.035 834.124 987.035 856.545C987.035 878.966 968.928 897.141 946.598 897.141C924.269 897.141 906.162 878.966 906.162 856.545C906.162 849.979 907.709 843.798 910.455 838.302C911.517 836.204 912.109 833.827 912.109 831.313C912.109 822.718 905.165 815.745 896.598 815.745C888.032 815.745 881.088 822.718 881.088 831.313C881.088 833.827 881.68 836.204 882.742 838.303C885.487 843.781 887.035 849.979 887.035 856.545L887.035 856.546C887.052 878.966 868.945 897.141 846.615 897.141C824.285 897.141 806.178 878.966 806.178 856.545C806.178 834.124 824.285 815.95 846.615 815.95C847.4 815.95 848.181 815.967 848.959 816.017Z" stroke="white"/>
<path d="M830.413 791.922L830.413 791.922C823.19 802.948 810.743 810.214 796.616 810.214C782.49 810.214 770.059 802.932 762.819 791.921C758.626 785.523 756.179 777.856 756.179 769.619C756.179 747.198 774.286 729.024 796.616 729.024C818.946 729.024 837.053 747.198 837.053 769.619C837.053 777.856 834.606 785.523 830.413 791.922Z" stroke="white"/>
<path d="M1096.51 810.147L1096.5 810.147C1096.2 810.129 1095.9 810.129 1095.6 810.129H1095.6C1087.03 810.129 1080.09 817.103 1080.09 825.698C1080.09 828.859 1081.03 831.795 1082.63 834.241L1082.63 834.242C1086.84 840.639 1089.27 848.307 1089.27 856.544C1089.27 878.965 1071.16 897.14 1048.83 897.14C1026.5 897.14 1008.4 878.965 1008.4 856.544C1008.4 848.308 1010.84 840.641 1015.03 834.243C1016.65 831.793 1017.58 828.84 1017.58 825.698C1017.58 817.103 1010.63 810.129 1002.07 810.129H1002.06C1001.78 810.129 1001.47 810.129 1001.18 810.146H1001.17H1001.16L1001.14 810.147C1000.38 810.197 999.6 810.214 998.815 810.214C976.536 810.214 958.429 792.04 958.429 769.619C958.429 747.198 976.536 729.023 998.865 729.023C1021.2 729.023 1039.3 747.198 1039.3 769.619C1039.3 776.185 1037.75 782.366 1035.01 787.862C1033.95 789.96 1033.36 792.337 1033.36 794.851C1033.36 803.446 1040.3 810.419 1048.87 810.419C1057.43 810.419 1064.38 803.446 1064.38 794.851C1064.38 792.337 1063.78 789.96 1062.72 787.861C1059.98 782.383 1058.43 776.185 1058.43 769.619V769.618C1058.41 747.198 1076.52 729.023 1098.85 729.023C1121.18 729.023 1139.29 747.198 1139.29 769.619C1139.29 792.04 1121.18 810.214 1098.85 810.214C1098.06 810.214 1097.28 810.197 1096.51 810.147Z" stroke="white"/>
<path d="M1196.49 810.147L1196.48 810.147C1181.68 809.295 1169.01 800.459 1162.69 787.862C1159.94 782.366 1158.39 776.185 1158.39 769.619C1158.39 747.198 1176.5 729.023 1198.83 729.023C1221.16 729.023 1239.27 747.198 1239.27 769.619C1239.27 792.04 1221.16 810.214 1198.83 810.214C1198.05 810.214 1197.27 810.197 1196.49 810.147Z" stroke="white"/>
<path d="M1353.43 816.017L1353.42 816.017C1352.65 815.967 1351.87 815.95 1351.08 815.95C1328.75 815.95 1310.64 834.124 1310.64 856.545C1310.64 878.966 1328.75 897.141 1351.08 897.141C1373.41 897.141 1391.52 878.966 1391.5 856.546L1391.5 856.545C1391.5 849.979 1389.95 843.781 1387.21 838.302C1387.21 838.302 1387.21 838.302 1387.21 838.302L1387.65 838.078C1386.63 836.048 1386.05 833.748 1386.05 831.313C1386.05 822.993 1392.77 816.245 1401.06 816.245C1409.35 816.245 1416.07 822.993 1416.07 831.313C1416.07 833.748 1415.5 836.048 1414.47 838.078L1353.43 816.017ZM1353.43 816.017C1353.73 816.035 1354.03 816.035 1354.32 816.035L1354.33 816.035C1362.9 816.035 1369.84 809.061 1369.84 800.466C1369.84 797.305 1368.9 794.369 1367.3 791.923L1367.3 791.922C1363.09 785.525 1360.66 777.857 1360.66 769.62C1360.66 747.198 1378.77 729.024 1401.1 729.024C1423.43 729.024 1441.53 747.198 1441.53 769.62C1441.53 777.856 1439.09 785.523 1434.89 791.921C1433.27 794.37 1432.35 797.324 1432.35 800.466C1432.35 809.061 1439.3 816.035 1447.86 816.035L1447.87 816.035C1448.15 816.035 1448.46 816.035 1448.75 816.018L1448.76 816.018L1448.77 816.018L1448.79 816.017C1449.55 815.967 1450.33 815.95 1451.11 815.95C1473.39 815.95 1491.5 834.124 1491.5 856.545C1491.5 878.966 1473.39 897.141 1451.06 897.141C1428.73 897.141 1410.63 878.966 1410.63 856.545C1410.63 849.979 1412.17 843.798 1414.92 838.302L1353.43 816.017Z" stroke="white"/>
<path d="M1334.88 791.922L1334.88 791.922C1327.65 802.948 1315.21 810.214 1301.08 810.214C1286.95 810.214 1274.52 802.932 1267.28 791.921C1263.09 785.523 1260.64 777.855 1260.64 769.619C1260.64 747.198 1278.75 729.023 1301.08 729.023C1323.41 729.023 1341.52 747.198 1341.52 769.619C1341.52 777.856 1339.07 785.523 1334.88 791.922Z" stroke="white"/>
</g>
</svg>
