<svg width="64" height="64" viewBox="0 0 64 64" fill="none" xmlns="http://www.w3.org/2000/svg">
<g clip-path="url(#clip0_824_7993)">
<path d="M59.3333 10.667H50.6667C49.1947 10.667 48 11.8617 48 13.3337C48 14.8057 49.1947 15.3337 50.6667 15.3337H59.3333V51.3337H4.66667V15.3337H13.3333C14.8053 15.3337 16 14.8057 16 13.3337C16 11.8617 14.8053 10.667 13.3333 10.667H4.66667C2.09067 10.667 0 12.7577 0 15.3337V51.3337C0 53.9097 2.09067 56.0003 4.66667 56.0003H25.088C24.7733 57.3363 23.944 59.5043 21.7227 61.723C21.3413 62.1043 21.2267 62.6777 21.4347 63.1763C21.64 63.675 22.128 64.0003 22.6667 64.0003H41.3333C41.872 64.0003 42.36 63.675 42.5653 63.1763C42.7707 62.6777 42.656 62.1043 42.2773 61.723C40.0613 59.507 39.208 57.339 38.8773 56.0003H59.3333C61.9093 56.0003 64 53.9097 64 51.3337V15.3337C64 12.7577 61.9093 10.667 59.3333 10.667Z" fill="white"/>
<path d="M19.3763 18.1333L21.5309 21.8667C21.8669 22.4507 22.5843 22.6907 23.2056 22.4293L25.9709 21.2613C26.6456 21.776 27.3629 22.2293 28.1549 22.56L28.5229 25.496C28.6056 26.1653 29.1709 26.6667 29.8429 26.6667H34.1549C34.8269 26.6667 35.3949 26.1653 35.4776 25.4987L35.8456 22.5627C36.6376 22.232 37.3576 21.776 38.0296 21.264L40.7949 22.4293C41.4163 22.6907 42.1336 22.4507 42.4696 21.8667L44.6243 18.1333C44.9603 17.552 44.8109 16.8107 44.2749 16.4027L41.8723 14.584C41.9256 14.1707 42.0003 13.7627 42.0003 13.3333C42.0003 12.904 41.9256 12.496 41.8749 12.0827L44.2776 10.264C44.8136 9.85867 44.9629 9.11734 44.6269 8.53334L42.4696 4.8C42.1336 4.21867 41.4163 3.976 40.7976 4.23733L38.0323 5.40267C37.3576 4.888 36.6403 4.43467 35.8483 4.104L35.4803 1.168C35.3949 0.501333 34.8296 0 34.1576 0H29.8456C29.1736 0 28.6056 0.501333 28.5229 1.168L28.1549 4.104C27.3603 4.43467 26.6429 4.89067 25.9683 5.40267L23.2056 4.23733C22.5843 3.976 21.8669 4.216 21.5309 4.8L19.3763 8.53334C19.0403 9.11467 19.1896 9.856 19.7256 10.264L22.1283 12.0827C22.0749 12.496 22.0003 12.904 22.0003 13.3333C22.0003 13.7627 22.0749 14.1707 22.1256 14.584L19.7256 16.4027C19.1896 16.808 19.0376 17.5493 19.3763 18.1333V18.1333ZM32.0003 8C34.9469 8 37.3336 10.3867 37.3336 13.3333C37.3336 16.28 34.9469 18.6667 32.0003 18.6667C29.0536 18.6667 26.6669 16.28 26.6669 13.3333C26.6669 10.3867 29.0536 8 32.0003 8Z" fill="#0585F2"/>
</g>
<defs>
<clipPath id="clip0_824_7993">
<rect width="64" height="64" fill="white"/>
</clipPath>
</defs>
</svg>
