<svg width="23" height="35" viewBox="0 0 23 35" fill="none" xmlns="http://www.w3.org/2000/svg">
<path fill-rule="evenodd" clip-rule="evenodd" d="M11.7744 17.7743C11.7744 14.6807 14.2823 12.1729 17.3759 12.1729C20.4694 12.1729 22.9773 14.6807 22.9773 17.7743C22.9773 20.8679 20.4694 23.3757 17.3759 23.3757C14.2823 23.3757 11.7744 20.8679 11.7744 17.7743Z" fill="#1ABCFE"/>
<path fill-rule="evenodd" clip-rule="evenodd" d="M0.571289 28.9764C0.571289 25.8828 3.07914 23.375 6.17273 23.375H11.7742V28.9764C11.7742 32.07 9.26631 34.5779 6.17273 34.5779C3.07914 34.5779 0.571289 32.07 0.571289 28.9764Z" fill="#0ACF83"/>
<path fill-rule="evenodd" clip-rule="evenodd" d="M11.7744 0.969727V12.1726H17.3759C20.4694 12.1726 22.9773 9.66475 22.9773 6.57116C22.9773 3.47758 20.4694 0.969727 17.3759 0.969727H11.7744Z" fill="#FF7262"/>
<path fill-rule="evenodd" clip-rule="evenodd" d="M0.571289 6.57116C0.571289 9.66475 3.07914 12.1726 6.17272 12.1726H11.7742V0.969727H6.17272C3.07914 0.969727 0.571289 3.47758 0.571289 6.57116Z" fill="#F24E1E"/>
<path fill-rule="evenodd" clip-rule="evenodd" d="M0.571289 17.7743C0.571289 20.8679 3.07914 23.3757 6.17273 23.3757H11.7742V12.1729H6.17273C3.07914 12.1729 0.571289 14.6807 0.571289 17.7743Z" fill="#A259FF"/>
</svg>
