<svg width="123" height="24" viewBox="0 0 123 24" fill="none" xmlns="http://www.w3.org/2000/svg">
<g clip-path="url(#clip0_1400_22293)">
<path d="M27.0709 5.953C27.0709 9.11065 24.5109 11.6706 21.3533 11.6706C21.2427 11.6706 21.1321 11.6683 21.0215 11.6612C20.9815 11.6589 20.9415 11.6589 20.8991 11.6589C19.7415 11.6589 18.8027 12.5977 18.8027 13.7554C18.8027 14.1812 18.9297 14.5765 19.1462 14.9059C19.7415 15.8071 20.085 16.8871 20.085 18.0471C20.085 21.2048 17.525 23.7648 14.3674 23.7648C11.2097 23.7648 8.64972 21.2048 8.64972 18.0471C8.64972 16.8871 8.9956 15.8071 9.58855 14.9059C9.80737 14.5765 9.93208 14.1789 9.93208 13.7554C9.93208 12.5977 8.99325 11.6589 7.8356 11.6589C7.7956 11.6589 7.75325 11.6589 7.71325 11.6612H7.7109C7.60266 11.6683 7.49207 11.6706 7.38149 11.6706C4.2309 11.6706 1.6709 9.11065 1.6709 5.953C1.6709 2.79535 4.2309 0.235352 7.38855 0.235352C10.5462 0.235352 13.1062 2.79535 13.1062 5.953C13.1062 6.8777 12.8874 7.74829 12.4991 8.52241C12.3556 8.80476 12.2756 9.12476 12.2756 9.46359C12.2756 10.6212 13.2144 11.5601 14.3721 11.5601C15.5297 11.5601 16.4685 10.6212 16.4685 9.46359C16.4685 9.12476 16.3885 8.80476 16.245 8.52241C15.8568 7.75065 15.638 6.8777 15.638 5.953C15.6356 2.79535 18.1956 0.235352 21.3533 0.235352C24.5109 0.235352 27.0709 2.79535 27.0709 5.953Z" fill="#0685F1"/>
<path d="M29.5996 5.953C29.5996 6.8777 29.8184 7.74829 30.2067 8.52241C31.1008 10.2965 32.8914 11.5412 34.9855 11.6612C35.0961 11.6683 35.2067 11.6706 35.3173 11.6706C38.4749 11.6706 41.0349 9.11065 41.0349 5.953C41.0349 2.79535 38.4749 0.235352 35.3173 0.235352C32.1596 0.235352 29.5996 2.79535 29.5996 5.953Z" fill="#63B5FB"/>
<path d="M23.558 14.9056C22.965 15.8067 22.6191 16.8867 22.6191 18.0467C22.6191 21.2044 25.1791 23.7644 28.3368 23.7644C31.4944 23.7644 34.0544 21.2044 34.0544 18.0467C34.0544 16.8867 33.7086 15.8067 33.1156 14.9056C32.0921 13.355 30.3344 12.3291 28.3368 12.3291C26.3391 12.3291 24.5791 13.3526 23.558 14.9056Z" fill="#319DFA"/>
<path d="M46 4H50.1647L53.5741 13.6447L57.2424 4H59.7882L63.3906 13.5365L66.8047 4H70.9953L64.8094 20.9529H62.1129L58.4988 11.2918L54.7741 20.9529H52.1082L46 4Z" fill="white"/>
<path d="M79.3736 3.08691C80.9736 3.08691 82.4771 3.48691 83.8842 4.28691C85.2912 5.08691 86.3901 6.17162 87.1807 7.54339C87.9712 8.91515 88.3642 10.3951 88.3642 11.9834C88.3642 13.5834 87.9665 15.0799 87.1712 16.4704C86.376 17.861 85.2936 18.9504 83.9218 19.734C82.5501 20.5175 81.0395 20.9104 79.3877 20.9104C76.9571 20.9104 74.8818 20.0446 73.1618 18.3151C71.4418 16.5857 70.583 14.4846 70.583 12.0116C70.583 9.36221 71.5548 7.15515 73.4983 5.39044C75.2042 3.85633 77.1618 3.08691 79.3736 3.08691ZM79.4442 7.09162C78.1218 7.09162 77.023 7.55044 76.143 8.47044C75.263 9.39044 74.823 10.5669 74.823 11.9999C74.823 13.4751 75.2583 14.6704 76.1265 15.5834C76.9948 16.4987 78.0959 16.9551 79.4277 16.9551C80.7595 16.9551 81.8677 16.494 82.7524 15.5693C83.6371 14.6446 84.0795 13.4563 84.0795 11.9999C84.0795 10.5457 83.6442 9.36456 82.776 8.45397C81.9077 7.54574 80.7971 7.09162 79.4442 7.09162Z" fill="white"/>
<path d="M87.4727 3.52246H91.8068L96.0891 13.5272L100.362 3.52246H104.675L97.4609 20.4754H94.7032L87.4727 3.52246Z" fill="white"/>
<path d="M121.593 13.2308H107.927C108.125 14.4355 108.652 15.3955 109.508 16.1061C110.365 16.8191 111.459 17.1744 112.788 17.1744C114.376 17.1744 115.743 16.6191 116.887 15.5061L120.471 17.1885C119.576 18.4567 118.506 19.3932 117.261 20.0003C116.014 20.6073 114.534 20.9108 112.821 20.9108C110.162 20.9108 107.995 20.0732 106.325 18.3932C104.652 16.7155 103.816 14.6144 103.816 12.0897C103.816 9.50379 104.649 7.35555 106.318 5.64731C107.986 3.93908 110.075 3.08496 112.588 3.08496C115.259 3.08496 117.428 3.93908 119.101 5.64731C120.774 7.35555 121.609 9.61202 121.609 12.4167L121.593 13.2308ZM117.339 9.88026C117.059 8.93437 116.503 8.16731 115.678 7.57437C114.849 6.98143 113.892 6.68731 112.798 6.68731C111.612 6.68731 110.572 7.01908 109.675 7.68496C109.113 8.10143 108.593 8.8332 108.115 9.88261H117.339V9.88026Z" fill="white"/>
</g>
<defs>
<clipPath id="clip0_1400_22293">
<rect width="121.176" height="24" fill="white" transform="translate(1.2002)"/>
</clipPath>
</defs>
</svg>
