<svg width="109" height="109" viewBox="0 0 109 109" fill="none" xmlns="http://www.w3.org/2000/svg">
<rect x="0.666016" y="0.753906" width="107.548" height="107.548" rx="53.7738" fill="#171717"/>
<g clip-path="url(#clip0_484_3960)">
<path d="M76.4386 33.8434C76.4361 33.4946 76.2965 33.1608 76.0498 32.9142C75.8032 32.6675 75.4694 32.5279 75.1205 32.5254H33.7536C33.4048 32.5279 33.071 32.6675 32.8243 32.9142C32.5777 33.1608 32.438 33.4946 32.4355 33.8434V75.2104C32.438 75.5592 32.5777 75.893 32.8243 76.1397C33.071 76.3863 33.4048 76.526 33.7536 76.5284H64.5856L76.4386 64.6754V33.8434Z" fill="#FF0065"/>
<path d="M64.9125 65.0664H76.0448L64.5853 76.5259H53.5146L64.9125 65.0664Z" fill="#B0044B"/>
<path d="M76.4388 64.6729H65.8991C65.5503 64.6753 65.2165 64.815 64.9699 65.0617C64.7232 65.3083 64.5835 65.6421 64.5811 65.9909V76.5306L76.4388 64.6729Z" fill="#FF5BA0"/>
<path d="M63.0682 48.0079V61.2476C63.0695 61.3084 63.0585 61.3688 63.0358 61.4252C63.0132 61.4815 62.9793 61.5328 62.9364 61.5757C62.8934 61.6187 62.8422 61.6525 62.7858 61.6752C62.7294 61.6978 62.669 61.7088 62.6083 61.7075H59.1804C59.1197 61.7088 59.0593 61.6978 59.0029 61.6752C58.9465 61.6525 58.8953 61.6187 58.8523 61.5757C58.8094 61.5328 58.7755 61.4815 58.7529 61.4252C58.7302 61.3688 58.7192 61.3084 58.7205 61.2476V54.6574L54.5056 60.5199L50.1579 54.3942V61.3093C50.1592 61.37 50.1482 61.4304 50.1255 61.4868C50.1029 61.5432 50.0691 61.5944 50.0261 61.6374C49.9831 61.6803 49.9319 61.7141 49.8755 61.7368C49.8191 61.7595 49.7588 61.7705 49.698 61.7692H46.2725C46.2117 61.7705 46.1514 61.7595 46.095 61.7368C46.0386 61.7141 45.9874 61.6803 45.9444 61.6374C45.9015 61.5944 45.8676 61.5432 45.845 61.4868C45.8223 61.4304 45.8113 61.37 45.8126 61.3093V48.0079C45.8113 47.9471 45.8223 47.8867 45.845 47.8303C45.8676 47.774 45.9015 47.7227 45.9444 47.6798C45.9874 47.6368 46.0386 47.603 46.095 47.5803C46.1514 47.5577 46.2117 47.5467 46.2725 47.548H49.3021C49.4349 47.548 49.5629 47.6143 49.698 47.7447L54.3752 54.1999L59.1164 47.7447C59.1828 47.612 59.3772 47.548 59.5123 47.548H62.6083C62.7274 47.5567 62.8393 47.608 62.9237 47.6924C63.0081 47.7768 63.0594 47.8888 63.0682 48.0079Z" fill="white"/>
</g>
<defs>
<clipPath id="clip0_484_3960">
<rect width="44" height="44" fill="white" transform="translate(32.4395 32.5273)"/>
</clipPath>
</defs>
</svg>
