<svg width="108" height="108" viewBox="0 0 108 108" fill="none" xmlns="http://www.w3.org/2000/svg">
<rect width="107.548" height="107.548" rx="53.7738" fill="#171717"/>
<path fill-rule="evenodd" clip-rule="evenodd" d="M53.7744 53.7743C53.7744 50.6807 56.2823 48.1729 59.3759 48.1729C62.4694 48.1729 64.9773 50.6807 64.9773 53.7743C64.9773 56.8679 62.4694 59.3757 59.3759 59.3757C56.2823 59.3757 53.7744 56.8679 53.7744 53.7743Z" fill="#1ABCFE"/>
<path fill-rule="evenodd" clip-rule="evenodd" d="M42.5713 64.9764C42.5713 61.8828 45.0791 59.375 48.1727 59.375H53.7742V64.9764C53.7742 68.07 51.2663 70.5779 48.1727 70.5779C45.0791 70.5779 42.5713 68.07 42.5713 64.9764Z" fill="#0ACF83"/>
<path fill-rule="evenodd" clip-rule="evenodd" d="M53.7744 36.9697V48.1726H59.3759C62.4694 48.1726 64.9773 45.6648 64.9773 42.5712C64.9773 39.4776 62.4694 36.9697 59.3759 36.9697H53.7744Z" fill="#FF7262"/>
<path fill-rule="evenodd" clip-rule="evenodd" d="M42.5713 42.5712C42.5713 45.6648 45.0791 48.1726 48.1727 48.1726H53.7742V36.9697H48.1727C45.0791 36.9697 42.5713 39.4776 42.5713 42.5712Z" fill="#F24E1E"/>
<path fill-rule="evenodd" clip-rule="evenodd" d="M42.5713 53.7743C42.5713 56.8679 45.0791 59.3757 48.1727 59.3757H53.7742V48.1729H48.1727C45.0791 48.1729 42.5713 50.6807 42.5713 53.7743Z" fill="#A259FF"/>
</svg>
