<svg width="108" height="109" viewBox="0 0 108 109" fill="none" xmlns="http://www.w3.org/2000/svg">
<rect x="0.452148" y="0.755859" width="107.548" height="107.548" rx="53.7738" fill="#171717"/>
<path d="M54.2266 34.75C43.5909 34.75 34.9766 43.3644 34.9766 54C34.9766 62.5181 40.4869 69.7128 48.1387 72.2634C49.1012 72.4319 49.4622 71.8544 49.4622 71.3491C49.4622 70.8919 49.4381 69.3759 49.4381 67.7637C44.6016 68.6541 43.3503 66.5847 42.9653 65.5019C42.7487 64.9484 41.8103 63.24 40.9922 62.7828C40.3184 62.4219 39.3559 61.5316 40.9681 61.5075C42.4841 61.4834 43.5669 62.9031 43.9278 63.4806C45.6603 66.3922 48.4275 65.5741 49.5344 65.0687C49.7028 63.8175 50.2081 62.9753 50.7616 62.4941C46.4784 62.0128 42.0028 60.3525 42.0028 52.9894C42.0028 50.8959 42.7488 49.1634 43.9759 47.8159C43.7834 47.3347 43.1097 45.3616 44.1684 42.7147C44.1684 42.7147 45.7806 42.2094 49.4622 44.6878C51.0022 44.2547 52.6384 44.0381 54.2747 44.0381C55.9109 44.0381 57.5472 44.2547 59.0872 44.6878C62.7688 42.1853 64.3809 42.7147 64.3809 42.7147C65.4397 45.3616 64.7659 47.3347 64.5734 47.8159C65.8006 49.1634 66.5466 50.8719 66.5466 52.9894C66.5466 60.3766 62.0469 62.0128 57.7638 62.4941C58.4616 63.0956 59.0631 64.2506 59.0631 66.0553C59.0631 68.63 59.0391 70.6994 59.0391 71.3491C59.0391 71.8544 59.4 72.4559 60.3625 72.2634C64.184 70.9733 67.5047 68.5173 69.8572 65.2411C72.2097 61.9648 73.4755 58.0334 73.4766 54C73.4766 43.3644 64.8622 34.75 54.2266 34.75Z" fill="white"/>
</svg>
