<svg width="108" height="108" viewBox="0 0 108 108" fill="none" xmlns="http://www.w3.org/2000/svg">
<rect x="0.332031" width="107.548" height="107.548" rx="53.7738" fill="#171717"/>
<path fill-rule="evenodd" clip-rule="evenodd" d="M41.617 68.871L37.6598 63.904C36.7077 62.7089 36.1939 61.2394 36.1993 59.7268L36.2633 41.741C36.2714 39.4754 38.0851 37.5955 40.4169 37.4358L58.8563 36.1733C60.1959 36.0816 61.5258 36.4387 62.6233 37.1848L69.0847 41.5775C70.2413 42.3638 70.9273 43.6492 70.9224 45.0209L70.8496 65.469C70.8417 67.6862 69.0584 69.5219 66.7755 69.6628L46.3103 70.9262C44.4885 71.0387 42.7307 70.2689 41.617 68.871Z" fill="white"/>
<path d="M48.075 50.7411L48.0758 50.5057C48.078 49.9088 48.5563 49.4137 49.1707 49.3726L53.6458 49.073L59.8006 58.2124L59.8291 50.191L58.2373 49.978L58.2377 49.8662C58.2399 49.2623 58.7291 48.764 59.3513 48.732L63.423 48.5228L63.4209 49.1105C63.4199 49.3864 63.2146 49.6223 62.9341 49.6699L61.9539 49.8361L61.9076 62.8264L60.6766 63.2505C59.6482 63.6049 58.5061 63.2256 57.9213 62.3356L51.9469 53.2434L51.916 61.9214L53.7636 62.2763L53.7372 62.4483C53.6546 62.9871 53.1894 63.3947 52.6282 63.4197L48.0291 63.625C47.9704 63.0456 48.4052 62.5272 49.0027 62.4642L49.6078 62.4005L49.649 50.8299L48.075 50.7411Z" fill="black"/>
<path fill-rule="evenodd" clip-rule="evenodd" d="M59.0133 38.4391L40.5738 39.7017C39.4693 39.7773 38.6102 40.6678 38.6064 41.741L38.5423 59.7268C38.5388 60.7351 38.8813 61.7148 39.516 62.5115L43.4732 67.4786C44.113 68.2816 45.1228 68.7238 46.1693 68.6592L66.6345 67.3958C67.6835 67.3311 68.5028 66.4876 68.5065 65.4689L68.5793 45.0208C68.5815 44.3906 68.2663 43.8 67.7349 43.4387L61.2735 39.046C60.615 38.5984 59.817 38.3841 59.0133 38.4391ZM41.4797 42.0215C41.224 41.8311 41.3474 41.4344 41.6696 41.4112L59.1312 40.1552C59.6875 40.1152 60.2397 40.2688 60.6884 40.5885L64.1821 43.0777C64.3148 43.1722 64.2516 43.3763 64.087 43.3852L45.5964 44.3938C45.0368 44.4243 44.4852 44.2594 44.0415 43.9291L41.4797 42.0215ZM44.7181 47.5555C44.7202 46.953 45.2072 46.4554 45.8277 46.4215L65.3775 45.3538C65.9823 45.3207 66.4897 45.7872 66.4876 46.3743L66.4246 64.0803C66.4224 64.6816 65.9372 65.1787 65.3178 65.2141L45.8916 66.3226C45.2186 66.361 44.6529 65.8423 44.6553 65.1888L44.7181 47.5555Z" fill="black"/>
</svg>
