<svg width="108" height="109" viewBox="0 0 108 109" fill="none" xmlns="http://www.w3.org/2000/svg">
<rect y="0.755859" width="107.548" height="107.548" rx="53.7738" fill="#171717"/>
<path d="M42.083 34.833C40.5642 34.833 39.333 36.0642 39.333 37.583V72.4163C39.333 73.9351 40.5642 75.1663 42.083 75.1663H65.9163C67.4351 75.1663 68.6663 73.9351 68.6663 72.4163V45.833L57.6663 34.833H42.083Z" fill="#20A464"/>
<path d="M42.083 75.1663C40.5642 75.1663 39.333 73.9351 39.333 72.4163V71.958C39.333 73.4768 40.5642 74.708 42.083 74.708H65.9163C67.4351 74.708 68.6663 73.4768 68.6663 71.958V72.4163C68.6663 73.9351 67.4351 75.1663 65.9163 75.1663H42.083Z" fill="#149456"/>
<path d="M42.083 34.833C40.5642 34.833 39.333 36.0642 39.333 37.583V38.0413C39.333 36.5226 40.5642 35.2913 42.083 35.2913H58.1247L57.6663 34.833H42.083Z" fill="#38AE74"/>
<path d="M68.6668 55.2295V45.8337L67.0626 44.2295H59.3266C58.7141 44.2295 58.4073 44.97 58.8404 45.4031L68.6668 55.2295Z" fill="url(#paint0_linear_484_3975)"/>
<path d="M57.667 34.833L68.667 45.833H60.417C58.8982 45.833 57.667 44.6018 57.667 43.083V34.833Z" fill="#8ED1B1"/>
<path fill-rule="evenodd" clip-rule="evenodd" d="M61.3337 54.542V67.8337H46.667V54.542H61.3337ZM53.0837 56.3753H48.5003V58.667H53.0837V56.3753ZM54.917 58.667V56.3753H59.5003V58.667H54.917ZM53.0837 60.042H48.5003V62.3337H53.0837V60.042ZM54.917 62.3337V60.042H59.5003V62.3337H54.917ZM53.0837 63.7087H48.5003V66.0003H53.0837V63.7087ZM54.917 66.0003V63.7087H59.5003V66.0003H54.917Z" fill="white"/>
<defs>
<linearGradient id="paint0_linear_484_3975" x1="63.6523" y1="55.2295" x2="63.6523" y2="44.0003" gradientUnits="userSpaceOnUse">
<stop stop-color="#20A464"/>
<stop offset="1" stop-color="#207E55"/>
</linearGradient>
</defs>
</svg>
