<svg width="45" height="44" viewBox="0 0 45 44" fill="none" xmlns="http://www.w3.org/2000/svg">
<path d="M22.2266 2.75C11.5909 2.75 2.97656 11.3644 2.97656 22C2.97656 30.5181 8.48687 37.7128 16.1387 40.2634C17.1012 40.4319 17.4622 39.8544 17.4622 39.3491C17.4622 38.8919 17.4381 37.3759 17.4381 35.7637C12.6016 36.6541 11.3503 34.5847 10.9653 33.5019C10.7487 32.9484 9.81031 31.24 8.99219 30.7828C8.31844 30.4219 7.35594 29.5316 8.96812 29.5075C10.4841 29.4834 11.5669 30.9031 11.9278 31.4806C13.6603 34.3922 16.4275 33.5741 17.5344 33.0687C17.7028 31.8175 18.2081 30.9753 18.7616 30.4941C14.4784 30.0128 10.0028 28.3525 10.0028 20.9894C10.0028 18.8959 10.7488 17.1634 11.9759 15.8159C11.7834 15.3347 11.1097 13.3616 12.1684 10.7147C12.1684 10.7147 13.7806 10.2094 17.4622 12.6878C19.0022 12.2547 20.6384 12.0381 22.2747 12.0381C23.9109 12.0381 25.5472 12.2547 27.0872 12.6878C30.7688 10.1853 32.3809 10.7147 32.3809 10.7147C33.4397 13.3616 32.7659 15.3347 32.5734 15.8159C33.8006 17.1634 34.5466 18.8719 34.5466 20.9894C34.5466 28.3766 30.0469 30.0128 25.7638 30.4941C26.4616 31.0956 27.0631 32.2506 27.0631 34.0553C27.0631 36.63 27.0391 38.6994 27.0391 39.3491C27.0391 39.8544 27.4 40.4559 28.3625 40.2634C32.184 38.9733 35.5047 36.5173 37.8572 33.2411C40.2097 29.9648 41.4755 26.0334 41.4766 22C41.4766 11.3644 32.8622 2.75 22.2266 2.75Z" fill="white"/>
</svg>
