<svg width="743" height="106" viewBox="0 0 743 106" fill="none" xmlns="http://www.w3.org/2000/svg">
<path d="M735 98.7174V61C735 49.9543 726.046 41 715 41L28 41C16.9543 41 8 49.9543 8 61L8 98.7174" stroke="#60A5FA" stroke-width="2" stroke-linecap="round" stroke-dasharray="1 6"/>
<path d="M372.5 2V41" stroke="#60A5FA" stroke-width="2" stroke-linecap="round" stroke-dasharray="1 6"/>
<path d="M728 92L735 99L742 92" stroke="#60A5FA" stroke-width="2" stroke-linecap="round" stroke-linejoin="round"/>
<path d="M1 92L8 99L15 92" stroke="#60A5FA" stroke-width="2" stroke-linecap="round" stroke-linejoin="round"/>
<path fill-rule="evenodd" clip-rule="evenodd" d="M367 6C367 3.23858 369.239 1 372 1C374.761 1 377 3.23858 377 6C377 8.76142 374.761 11 372 11C369.239 11 367 8.76142 367 6Z" fill="#60A5FA"/>
<path d="M372 39.8887V102.622" stroke="#60A5FA" stroke-width="2" stroke-linecap="round" stroke-dasharray="1 6"/>
<path d="M365 95.8887L372 102.889L379 95.8887" stroke="#60A5FA" stroke-width="2" stroke-linecap="round" stroke-linejoin="round"/>
</svg>
