<svg width="178" height="177" viewBox="0 0 178 177" fill="none" xmlns="http://www.w3.org/2000/svg">
<circle cx="89.461" cy="88.5206" r="74.4991" fill="#171717"/>
<path d="M175.723 88.5207C175.723 136.152 136.862 174.783 88.9011 174.783C40.9404 174.783 2.07887 136.152 2.07887 88.5207C2.07887 40.8895 40.9404 2.25856 88.9011 2.25856C136.862 2.25856 175.723 40.8895 175.723 88.5207Z" stroke="#171717" stroke-width="3.36086"/>
<path d="M98.5798 80.3443C98.5798 85.0609 94.793 88.8848 90.1222 88.8848C89.9586 88.8848 89.795 88.8813 89.6315 88.8707C89.5723 88.8672 89.5131 88.8672 89.4505 88.8672C87.7381 88.8672 86.3493 90.2696 86.3493 91.9988C86.3493 92.6349 86.5373 93.2254 86.8575 93.7174C87.7381 95.0635 88.2462 96.6767 88.2462 98.4094C88.2462 103.126 84.4594 106.95 79.7886 106.95C75.1178 106.95 71.331 103.126 71.331 98.4094C71.331 96.6767 71.8426 95.0635 72.7197 93.7174C73.0434 93.2254 73.2279 92.6314 73.2279 91.9988C73.2279 90.2696 71.8391 88.8672 70.1267 88.8672C70.0676 88.8672 70.0049 88.8672 69.9457 88.8707H69.9423C69.7822 88.8813 69.6186 88.8848 69.455 88.8848C64.7946 88.8848 61.0078 85.0609 61.0078 80.3443C61.0078 75.6276 64.7946 71.8037 69.4654 71.8037C74.1363 71.8037 77.9231 75.6276 77.9231 80.3443C77.9231 81.7255 77.5994 83.0259 77.0251 84.1822C76.8128 84.604 76.6944 85.082 76.6944 85.5881C76.6944 87.3173 78.0832 88.7196 79.7956 88.7196C81.508 88.7196 82.8967 87.3173 82.8967 85.5881C82.8967 85.082 82.7784 84.604 82.566 84.1822C81.9918 83.0294 81.6681 81.7255 81.6681 80.3443C81.6646 75.6276 85.4514 71.8037 90.1222 71.8037C94.793 71.8037 98.5798 75.6276 98.5798 80.3443Z" fill="#0685F1"/>
<path d="M102.322 80.3442C102.322 81.7255 102.646 83.0259 103.22 84.1822C104.543 86.8322 107.191 88.6915 110.289 88.8707C110.453 88.8813 110.616 88.8848 110.78 88.8848C115.451 88.8848 119.238 85.0609 119.238 80.3442C119.238 75.6276 115.451 71.8037 110.78 71.8037C106.109 71.8037 102.322 75.6276 102.322 80.3442Z" fill="#63B5FB"/>
<path d="M93.3838 93.7177C92.5068 95.0638 91.9951 96.677 91.9951 98.4097C91.9951 103.126 95.7819 106.95 100.453 106.95C105.124 106.95 108.91 103.126 108.91 98.4097C108.91 96.677 108.399 95.0638 107.522 93.7177C106.008 91.4015 103.408 89.8691 100.453 89.8691C97.4978 89.8691 94.8944 91.398 93.3838 93.7177Z" fill="#319DFA"/>
</svg>
