<svg width="359" height="215" viewBox="0 0 359 215" fill="none" xmlns="http://www.w3.org/2000/svg">
<path d="M231.675 52.3294C231.572 81.1476 208.212 104.511 179.501 104.511C178.495 104.511 177.49 104.49 176.485 104.425C176.121 104.404 175.757 104.404 175.372 104.404C164.846 104.404 156.28 112.972 156.242 123.537C156.228 127.424 157.371 131.032 159.328 134.038C164.712 142.263 167.8 152.119 167.762 162.706C167.66 191.524 144.3 214.888 115.589 214.888C86.8777 214.888 63.684 191.524 63.7866 162.706C63.8243 152.119 67.0043 142.263 72.4249 134.038C74.4253 131.032 75.5721 127.403 75.5858 123.537C75.6235 112.972 67.1177 104.404 56.5917 104.404C56.228 104.404 55.8429 104.404 55.4792 104.425H55.4578C54.4734 104.49 53.4678 104.511 52.4623 104.511C23.8155 104.511 0.621785 81.1476 0.724381 52.3294C0.826978 23.5112 24.187 0.147461 52.898 0.147461C81.609 0.147461 104.803 23.5112 104.7 52.3294C104.67 60.7687 102.652 68.7141 99.0969 75.7791C97.7827 78.356 97.0449 81.2765 97.0339 84.3687C96.9963 94.934 105.502 103.502 116.028 103.502C126.554 103.502 135.121 94.934 135.158 84.3687C135.169 81.2765 134.452 78.356 133.156 75.7791C129.651 68.7356 127.69 60.7687 127.72 52.3294C127.801 23.5112 151.161 0.147461 179.872 0.147461C208.583 0.147461 231.777 23.5112 231.675 52.3294Z" fill="white"/>
<path d="M254.674 52.3294C254.644 60.7687 256.605 68.7141 260.11 75.7791C268.182 91.9705 284.422 103.33 303.459 104.425C304.465 104.49 305.47 104.511 306.476 104.511C335.187 104.511 358.547 81.1476 358.649 52.3294C358.752 23.5112 335.558 0.147461 306.847 0.147461C278.136 0.147461 254.776 23.5112 254.674 52.3294Z" fill="#D4D4D4"/>
<path d="M199.443 134.038C194.022 142.262 190.842 152.119 190.804 162.705C190.702 191.524 213.896 214.887 242.607 214.887C271.318 214.887 294.678 191.524 294.78 162.705C294.818 152.119 291.708 142.262 286.346 134.038C277.09 119.886 261.142 110.523 242.978 110.523C224.814 110.523 208.778 119.865 199.443 134.038Z" fill="#F5F5F5"/>
</svg>
