<svg width="45" height="45" viewBox="0 0 45 45" fill="none" xmlns="http://www.w3.org/2000/svg">
<path d="M44.4386 1.84344C44.4361 1.49464 44.2965 1.16083 44.0498 0.914181C43.8032 0.667535 43.4694 0.527873 43.1205 0.525391H1.7536C1.4048 0.527873 1.07099 0.667535 0.824347 0.914181C0.5777 1.16083 0.43803 1.49464 0.435547 1.84344V43.2104C0.43803 43.5592 0.5777 43.893 0.824347 44.1397C1.07099 44.3863 1.4048 44.526 1.7536 44.5284H32.5856L44.4386 32.6754V1.84344Z" fill="#FF0065"/>
<path d="M32.9125 33.0664H44.0448L32.5853 44.5259H21.5146L32.9125 33.0664Z" fill="#B0044B"/>
<path d="M44.4388 32.6729H33.8991C33.5503 32.6753 33.2165 32.815 32.9699 33.0617C32.7232 33.3083 32.5835 33.6421 32.5811 33.9909V44.5306L44.4388 32.6729Z" fill="#FF5BA0"/>
<path d="M31.0682 16.0079V29.2476C31.0695 29.3084 31.0585 29.3688 31.0358 29.4252C31.0132 29.4815 30.9793 29.5328 30.9364 29.5757C30.8934 29.6187 30.8422 29.6525 30.7858 29.6752C30.7294 29.6978 30.669 29.7088 30.6083 29.7075H27.1804C27.1197 29.7088 27.0593 29.6978 27.0029 29.6752C26.9465 29.6525 26.8953 29.6187 26.8523 29.5757C26.8094 29.5328 26.7755 29.4815 26.7529 29.4252C26.7302 29.3688 26.7192 29.3084 26.7205 29.2476V22.6574L22.5056 28.5199L18.1579 22.3942V29.3093C18.1592 29.37 18.1482 29.4304 18.1255 29.4868C18.1029 29.5432 18.0691 29.5944 18.0261 29.6374C17.9831 29.6803 17.9319 29.7141 17.8755 29.7368C17.8191 29.7595 17.7588 29.7705 17.698 29.7692H14.2725C14.2117 29.7705 14.1514 29.7595 14.095 29.7368C14.0386 29.7141 13.9874 29.6803 13.9444 29.6374C13.9015 29.5944 13.8676 29.5432 13.845 29.4868C13.8223 29.4304 13.8113 29.37 13.8126 29.3093V16.0079C13.8113 15.9471 13.8223 15.8867 13.845 15.8303C13.8676 15.774 13.9015 15.7227 13.9444 15.6798C13.9874 15.6368 14.0386 15.603 14.095 15.5803C14.1514 15.5577 14.2117 15.5467 14.2725 15.548H17.3021C17.4349 15.548 17.5629 15.6143 17.698 15.7447L22.3752 22.1999L27.1164 15.7447C27.1828 15.612 27.3772 15.548 27.5123 15.548H30.6083C30.7274 15.5567 30.8393 15.608 30.9237 15.6924C31.0081 15.7768 31.0594 15.8888 31.0682 16.0079Z" fill="white"/>
</svg>
