<svg width="188" height="359" viewBox="0 0 188 359" fill="none" xmlns="http://www.w3.org/2000/svg">
<path fill-rule="evenodd" clip-rule="evenodd" d="M135.616 305.903H99.9418C96.6581 305.903 93.9961 308.418 93.9961 311.521V345.224C93.9961 348.326 96.6581 350.841 99.9418 350.841H135.616C138.888 350.825 141.532 348.315 141.531 345.224V311.521C141.532 308.429 138.888 305.919 135.616 305.903ZM103.899 311.521H111.822C114.01 311.521 115.783 313.197 115.783 315.265V341.479C115.783 343.547 114.01 345.224 111.822 345.224H103.899C101.712 345.224 99.938 343.547 99.938 341.479V315.265C99.938 313.197 101.712 311.521 103.899 311.521ZM131.628 311.521H123.706C121.518 311.521 119.744 313.197 119.744 315.265V328.372C119.744 330.44 121.518 332.117 123.706 332.117H131.628C133.816 332.117 135.59 330.44 135.59 328.372V315.265C135.59 313.197 133.816 311.521 131.628 311.521Z" fill="url(#paint0_linear_484_4027)"/>
<path d="M176.413 20.8983L178.284 17.6568C178.828 17.704 179.374 17.5958 179.859 17.3446C180.344 17.0934 180.747 16.7097 181.022 16.2381L181.066 16.1625C181.446 15.5007 181.548 14.7155 181.35 13.9786C181.153 13.2416 180.672 12.6128 180.012 12.2295L179.936 12.1858C179.275 11.8061 178.489 11.7038 177.752 11.9013C177.016 12.0988 176.387 12.58 176.003 13.2397L175.96 13.3153C175.689 13.7893 175.558 14.3306 175.583 14.8759C175.608 15.4213 175.787 15.9484 176.1 16.3958L174.229 19.6374C172.888 19.1147 171.434 18.9553 170.012 19.1755L165.109 7.11133C165.305 6.91946 165.474 6.70342 165.615 6.46846C165.937 5.91252 166.087 5.27362 166.045 4.63256C166.004 3.9915 165.774 3.37706 165.383 2.86695C164.993 2.35685 164.46 1.97398 163.852 1.76676C163.244 1.55954 162.588 1.53729 161.967 1.70281C161.346 1.86833 160.789 2.21419 160.365 2.69666C159.941 3.17913 159.669 3.77653 159.584 4.41332C159.5 5.05011 159.606 5.69769 159.889 6.27417C160.173 6.85065 160.621 7.33014 161.177 7.652C161.666 7.93231 162.221 8.07871 162.786 8.07648L167.603 19.9417C166.129 20.6758 164.91 21.8376 164.105 23.2754C163.301 24.7133 162.95 26.3602 163.096 28.0011L158.895 29.1267C158.721 28.9352 158.519 28.7704 158.297 28.6376C157.839 28.3736 157.314 28.2511 156.787 28.2856C156.261 28.3202 155.756 28.5102 155.337 28.8316C154.918 29.153 154.604 29.5914 154.434 30.0913C154.264 30.5913 154.247 31.1303 154.383 31.6403C154.52 32.1502 154.805 32.6082 155.202 32.9564C155.599 33.3045 156.09 33.5271 156.614 33.596C157.137 33.6649 157.669 33.577 158.143 33.3435C158.616 33.11 159.01 32.7413 159.274 32.2841C159.4 32.058 159.493 31.8144 159.548 31.5612L163.703 30.4477C164.184 31.6011 164.922 32.6295 165.861 33.4542C166.8 34.279 167.914 34.8783 169.12 35.2065C170.326 35.5347 171.591 35.5831 172.818 35.3479C174.045 35.1128 175.203 34.6003 176.202 33.8497C177.201 33.0991 178.015 32.1301 178.582 31.0167C179.15 29.9034 179.455 28.6751 179.476 27.4256C179.496 26.1762 179.231 24.9386 178.7 23.8074C178.169 22.6761 177.387 21.6811 176.413 20.8983ZM169.165 30.9312C168.444 30.515 167.863 29.8943 167.495 29.1477C167.127 28.4011 166.988 27.5621 167.097 26.7368C167.205 25.9114 167.556 25.1368 168.105 24.511C168.654 23.8851 169.376 23.436 170.18 23.2206C170.985 23.0051 171.834 23.033 172.623 23.3005C173.411 23.5681 174.102 24.0635 174.609 24.7239C175.116 25.3843 175.415 26.1802 175.47 27.0109C175.524 27.8415 175.331 28.6697 174.915 29.3906C174.357 30.3574 173.437 31.0628 172.359 31.3517C171.281 31.6406 170.132 31.4894 169.165 30.9312Z" fill="#FF7A59"/>
<path d="M8.76172 183.198C8.76172 184.195 9.37628 184.883 10.4204 184.883H30.1755C27.5243 179.933 24.556 175.417 20.8613 171.184C17.0385 173.449 12.998 175.409 8.76172 177.006V183.198Z" fill="#F15713"/>
<path d="M8.76172 152.362C12.9872 153.953 17.0184 155.907 20.8318 158.164C24.5393 153.924 27.7495 149.278 30.4074 144.314H10.8205C9.68323 144.314 8.76172 145.194 8.76172 146.279" fill="#69AAB5"/>
<path d="M20.8608 171.185C24.1434 169.239 27.2652 167.072 30.1885 164.684C27.2564 162.29 24.1233 160.116 20.8327 158.166C18.8329 160.454 16.6842 162.616 14.417 164.659C16.6956 166.713 18.8536 168.886 20.8608 171.185Z" fill="#FFB1A2"/>
<path d="M30.1882 164.684C27.2651 167.071 24.1436 169.238 20.8613 171.183C24.5561 175.417 27.5243 179.932 30.1755 184.883L45.0108 184.883C46.38 184.883 46.886 183.965 46.38 183.14C42.0881 176.151 36.5972 169.92 30.1882 164.684Z" fill="#F37036"/>
<path d="M30.4056 144.317C27.7491 149.277 24.536 153.926 20.8311 158.165C24.1218 160.115 27.2563 162.289 30.1883 164.683C36.6938 159.367 42.255 153.027 46.5744 145.91C47.0033 145.203 46.4537 144.314 45.5959 144.314L30.4056 144.317Z" fill="#85B8C1"/>
<path d="M8.76172 169.291C10.724 167.831 12.6106 166.287 14.4181 164.659C12.6106 163.031 10.724 161.485 8.76172 160.027V169.291Z" fill="#F76F6D"/>
<path d="M8.76172 152.361C12.9872 153.953 17.0184 155.907 20.8318 158.164C18.832 160.452 16.6847 162.615 14.4175 164.658C12.6101 163.03 10.724 161.485 8.76184 160.027L8.76172 152.361Z" fill="#F39D90"/>
<path d="M20.8614 171.184C18.8542 168.885 16.6961 166.712 14.4175 164.658C12.61 166.286 10.724 167.831 8.76172 169.291V177.006C12.998 175.409 17.0387 173.45 20.8614 171.184Z" fill="#FA8176"/>
<defs>
<linearGradient id="paint0_linear_484_4027" x1="117.779" y1="350.841" x2="117.779" y2="305.903" gradientUnits="userSpaceOnUse">
<stop stop-color="#0052CC"/>
<stop offset="0.51698" stop-color="#217EF8"/>
<stop offset="1" stop-color="#2684FF"/>
</linearGradient>
</defs>
</svg>
