<svg width="743" height="103" viewBox="0 0 743 103" fill="none" xmlns="http://www.w3.org/2000/svg">
<path d="M7.99999 3.28263L7.99999 41.0001C7.99999 52.0457 16.9543 61.0001 28 61.0001L715 61C726.046 61 735 52.0457 735 41L735 3.28256" stroke="#60A5FA" stroke-width="2" stroke-linecap="round" stroke-dasharray="1 6"/>
<path d="M370.5 101L370.5 61" stroke="#60A5FA" stroke-width="2" stroke-linecap="round" stroke-dasharray="1 6"/>
<path d="M15 10L8 3L0.999999 10" stroke="#A1A1AA" stroke-width="2" stroke-linecap="round" stroke-linejoin="round"/>
<path d="M742 10L735 3L728 10" stroke="#A1A1AA" stroke-width="2" stroke-linecap="round" stroke-linejoin="round"/>
<path fill-rule="evenodd" clip-rule="evenodd" d="M376 97C376 99.7614 373.761 102 371 102C368.239 102 366 99.7614 366 97C366 94.2386 368.239 92 371 92C373.761 92 376 94.2386 376 97Z" fill="#60A5FA"/>
</svg>
