<svg width="136" height="108" viewBox="0 0 136 108" fill="none" xmlns="http://www.w3.org/2000/svg">
<path d="M128 104.704V66.9863C128 55.9406 119.046 46.9863 108 46.9863L28 46.9863C16.9543 46.9863 8 55.9406 8 66.9863L8 104.704" stroke="#A1A1AA" stroke-width="2" stroke-linecap="round" stroke-dasharray="1 6"/>
<path d="M68.5 6.98633V46.9863" stroke="#A1A1AA" stroke-width="2" stroke-linecap="round" stroke-dasharray="1 6"/>
<path d="M121 97.9863L128 104.986L135 97.9863" stroke="#A1A1AA" stroke-width="2" stroke-linecap="round" stroke-linejoin="round"/>
<path d="M1 97.9863L8 104.986L15 97.9863" stroke="#A1A1AA" stroke-width="2" stroke-linecap="round" stroke-linejoin="round"/>
<path fill-rule="evenodd" clip-rule="evenodd" d="M63 6.98633C63 4.2249 65.2386 1.98633 68 1.98633C70.7614 1.98633 73 4.2249 73 6.98633C73 9.74775 70.7614 11.9863 68 11.9863C65.2386 11.9863 63 9.74775 63 6.98633Z" fill="#A1A1AA"/>
</svg>
