<svg width="38" height="38" viewBox="0 0 38 38" fill="none" xmlns="http://www.w3.org/2000/svg">
<path fill-rule="evenodd" clip-rule="evenodd" d="M6.61699 33.871L2.65983 28.904C1.70774 27.7089 1.19391 26.2394 1.1993 24.7268L1.26333 6.74101C1.2714 4.47541 3.08511 2.59547 5.41686 2.43582L23.8563 1.1733C25.1959 1.08158 26.5258 1.43867 27.6233 2.18478L34.0847 6.57747C35.2413 7.36377 35.9273 8.64915 35.9224 10.0209L35.8496 30.469C35.8417 32.6862 34.0584 34.5219 31.7755 34.6628L11.3103 35.9262C9.48849 36.0387 7.73072 35.2689 6.61699 33.871Z" fill="white"/>
<path d="M13.075 15.7411L13.0758 15.5057C13.078 14.9088 13.5563 14.4137 14.1707 14.3726L18.6458 14.073L24.8006 23.2124L24.8291 15.191L23.2373 14.978L23.2377 14.8662C23.2399 14.2623 23.7291 13.764 24.3513 13.732L28.423 13.5228L28.4209 14.1105C28.4199 14.3864 28.2146 14.6223 27.9341 14.6699L26.9539 14.8361L26.9076 27.8264L25.6766 28.2505C24.6482 28.6049 23.5061 28.2256 22.9213 27.3356L16.9469 18.2434L16.916 26.9214L18.7636 27.2763L18.7372 27.4483C18.6546 27.9871 18.1894 28.3947 17.6282 28.4197L13.0291 28.625C12.9704 28.0456 13.4052 27.5272 14.0027 27.4642L14.6078 27.4005L14.649 15.8299L13.075 15.7411Z" fill="black"/>
<path fill-rule="evenodd" clip-rule="evenodd" d="M24.0133 3.43914L5.57384 4.70165C4.46933 4.77728 3.6102 5.66778 3.60638 6.74096L3.54235 24.7268C3.53876 25.7351 3.88131 26.7148 4.51603 27.5115L8.47319 32.4786C9.11299 33.2816 10.1228 33.7238 11.1693 33.6592L31.6345 32.3958C32.6835 32.3311 33.5028 31.4876 33.5065 30.4689L33.5793 10.0208C33.5815 9.39057 33.2663 8.79999 32.7349 8.43871L26.2735 4.04602C25.615 3.59836 24.817 3.38411 24.0133 3.43914ZM6.47973 7.02151C6.22401 6.83109 6.34745 6.4344 6.66963 6.41122L24.1312 5.15522C24.6875 5.11521 25.2397 5.26884 25.6884 5.58852L29.1821 8.07774C29.3148 8.17225 29.2517 8.37626 29.087 8.38524L10.5964 9.39378C10.0368 9.4243 9.48518 9.25943 9.04152 8.92907L6.47973 7.02151ZM9.71805 12.5555C9.7202 11.953 10.2072 11.4554 10.8277 11.4215L30.3775 10.3538C30.9823 10.3207 31.4897 10.7872 31.4876 11.3743L31.4246 29.0803C31.4224 29.6816 30.9372 30.1787 30.3178 30.2141L10.8916 31.3226C10.2186 31.361 9.65295 30.8423 9.65527 30.1888L9.71805 12.5555Z" fill="black"/>
</svg>
