<svg width="44" height="44" viewBox="0 0 44 44" fill="none" xmlns="http://www.w3.org/2000/svg">
<path d="M10.083 1.83301C8.56423 1.83301 7.33301 3.06422 7.33301 4.58301V39.4163C7.33301 40.9351 8.56422 42.1663 10.083 42.1663H33.9163C35.4351 42.1663 36.6663 40.9351 36.6663 39.4163V12.833L25.6663 1.83301H10.083Z" fill="#20A464"/>
<path d="M10.083 42.1663C8.56422 42.1663 7.33301 40.9351 7.33301 39.4163V38.958C7.33301 40.4768 8.56422 41.708 10.083 41.708H33.9163C35.4351 41.708 36.6663 40.4768 36.6663 38.958V39.4163C36.6663 40.9351 35.4351 42.1663 33.9163 42.1663H10.083Z" fill="#149456"/>
<path d="M10.083 1.83301C8.56423 1.83301 7.33301 3.06422 7.33301 4.58301V5.04134C7.33301 3.52256 8.56422 2.29134 10.083 2.29134H26.1247L25.6663 1.83301H10.083Z" fill="#38AE74"/>
<path d="M36.6668 22.2295V12.8337L35.0626 11.2295H27.3266C26.7141 11.2295 26.4073 11.97 26.8404 12.4031L36.6668 22.2295Z" fill="url(#paint0_linear_810_5870)"/>
<path d="M25.667 1.83301L36.667 12.833H28.417C26.8982 12.833 25.667 11.6018 25.667 10.083V1.83301Z" fill="#8ED1B1"/>
<path fill-rule="evenodd" clip-rule="evenodd" d="M29.3337 21.542V34.8337H14.667V21.542H29.3337ZM21.0837 23.3753H16.5003V25.667H21.0837V23.3753ZM22.917 25.667V23.3753H27.5003V25.667H22.917ZM21.0837 27.042H16.5003V29.3337H21.0837V27.042ZM22.917 29.3337V27.042H27.5003V29.3337H22.917ZM21.0837 30.7087H16.5003V33.0003H21.0837V30.7087ZM22.917 33.0003V30.7087H27.5003V33.0003H22.917Z" fill="white"/>
<defs>
<linearGradient id="paint0_linear_810_5870" x1="31.6523" y1="22.2295" x2="31.6523" y2="11.0003" gradientUnits="userSpaceOnUse">
<stop stop-color="#20A464"/>
<stop offset="1" stop-color="#207E55"/>
</linearGradient>
</defs>
</svg>
