<svg width="64" height="64" viewBox="0 0 64 64" fill="none" xmlns="http://www.w3.org/2000/svg">
<g clip-path="url(#clip0_484_3615)">
<path d="M37.1614 56.7738H26.8389C25.6987 56.7738 24.7744 55.8495 24.7744 54.7093V46.4512C24.7744 45.311 25.6988 44.3867 26.8389 44.3867H37.1615C38.3018 44.3867 39.226 45.3111 39.226 46.4512V54.7093C39.2259 55.8495 38.3017 56.7738 37.1614 56.7738Z" fill="white"/>
<path d="M61.936 56.7748H51.6133C50.4731 56.7748 49.5488 55.8504 49.5488 54.7103V46.4522C49.5488 45.3119 50.4732 44.3877 51.6133 44.3877H61.936C63.0762 44.3877 64.0005 45.3121 64.0005 46.4522V54.7103C64.0005 55.8504 63.0761 56.7748 61.936 56.7748Z" fill="white"/>
<path d="M54.7093 30.9681H33.032V20.6455H30.9675V30.9681H9.29011C7.58248 30.9681 6.19336 32.3573 6.19336 34.0649V40.2584C6.19336 40.8284 6.65511 41.2906 7.22561 41.2906C7.79611 41.2906 8.25786 40.8284 8.25786 40.2584V34.0649C8.25786 33.4959 8.72061 33.0326 9.29011 33.0326H30.9675V40.2584C30.9675 40.8284 31.4292 41.2906 31.9997 41.2906C32.5702 41.2906 33.032 40.8284 33.032 40.2584V33.0326H54.7093C55.2788 33.0326 55.7416 33.4959 55.7416 34.0649V40.2584C55.7416 40.8284 56.2033 41.2906 56.7738 41.2906C57.3443 41.2906 57.8061 40.8284 57.8061 40.2584V34.0649C57.8062 32.3573 56.4171 30.9681 54.7093 30.9681Z" fill="#0585F2"/>
<path d="M37.1614 54.71H26.8389C25.6988 54.71 24.7744 53.7856 24.7744 52.6455V54.71C24.7744 55.8501 25.6988 56.7745 26.8389 56.7745H37.1615C38.3017 56.7745 39.226 55.8501 39.226 54.71V52.6455C39.2259 53.7858 38.3017 54.71 37.1614 54.71Z" fill="#0585F2"/>
<path d="M61.936 54.71H51.6133C50.4732 54.71 49.5488 53.7856 49.5488 52.6455V54.71C49.5488 55.8501 50.4732 56.7745 51.6133 56.7745H61.936C63.0761 56.7745 64.0005 55.8501 64.0005 54.71V52.6455C64.0005 53.7858 63.0761 54.71 61.936 54.71Z" fill="#0585F2"/>
<path d="M12.3871 56.774H2.0645C0.924375 56.774 0 55.8496 0 54.7093V46.4512C0 45.311 0.924375 44.3867 2.0645 44.3867H12.3871C13.5274 44.3867 14.4516 45.3111 14.4516 46.4512V54.7093C14.4516 55.8496 13.5273 56.774 12.3871 56.774Z" fill="white"/>
<path d="M12.3871 54.71H2.0645C0.924375 54.71 0 53.7858 0 52.6455V54.71C0 55.8501 0.924375 56.7745 2.0645 56.7745H12.3871C13.5273 56.7745 14.4516 55.8501 14.4516 54.71V52.6455C14.4516 53.7858 13.5273 54.71 12.3871 54.71Z" fill="#0585F2"/>
<path d="M32.0002 21.6771C35.9908 21.6771 39.2259 18.442 39.2259 14.4513C39.2259 10.4607 35.9908 7.22559 32.0002 7.22559C28.0095 7.22559 24.7744 10.4607 24.7744 14.4513C24.7744 18.442 28.0095 21.6771 32.0002 21.6771Z" fill="#63B5FB"/>
<path d="M29.0806 17.3715C26.6349 14.9259 26.3127 11.1649 28.1062 8.36816C27.6759 8.64404 27.2669 8.96629 26.8908 9.34254C24.0689 12.1644 24.0689 16.7395 26.8908 19.5614C29.7127 22.3833 34.2878 22.3833 37.1097 19.5614C37.4858 19.1853 37.8081 18.7762 38.0841 18.346C35.2872 20.1394 31.5262 19.8172 29.0806 17.3715Z" fill="#0585F2"/>
</g>
<defs>
<clipPath id="clip0_484_3615">
<rect width="64" height="64" fill="white"/>
</clipPath>
</defs>
</svg>
