<svg width="64" height="64" viewBox="0 0 64 64" fill="none" xmlns="http://www.w3.org/2000/svg">
<g clip-path="url(#clip0_899_5347)">
<path d="M10.9572 26.0527C8.78267 26.0527 7.01367 27.8219 7.01367 29.9962C7.01367 32.1706 8.78267 33.9397 10.9572 33.9397C13.1317 33.9397 14.9007 32.1706 14.9007 29.9962C14.9007 27.8219 13.1317 26.0527 10.9572 26.0527ZM10.9572 32.0649C9.81655 32.0649 8.88867 31.137 8.88867 29.9964C8.88867 28.8557 9.81655 27.9279 10.9572 27.9279C12.0978 27.9279 13.0257 28.8557 13.0257 29.9964C13.0257 31.137 12.0978 32.0649 10.9572 32.0649Z" fill="#0585F2"/>
<path d="M49.0986 29.9962C49.0986 32.1707 50.8676 33.9397 53.0421 33.9397C55.2166 33.9397 56.9856 32.1706 56.9856 29.9962C56.9856 27.8219 55.2166 26.0527 53.0421 26.0527C50.8676 26.0527 49.0986 27.8217 49.0986 29.9962ZM55.1106 29.9962C55.1106 31.1369 54.1828 32.0647 53.0421 32.0647C51.9015 32.0647 50.9736 31.1369 50.9736 29.9962C50.9736 28.8556 51.9015 27.9277 53.0421 27.9277C54.1828 27.9277 55.1106 28.8556 55.1106 29.9962Z" fill="#0585F2"/>
<path d="M62.181 25.9594C61.8951 25.5276 61.3135 25.4096 60.8817 25.6954C60.45 25.9813 60.3319 26.563 60.6177 26.9947C61.6039 28.4835 62.125 30.2144 62.125 32C62.125 34.88 60.7761 37.4491 58.6786 39.1144C57.8821 36.7395 55.6468 35.0705 53.0423 35.0705C50.4625 35.0705 48.2116 36.7624 47.4086 39.1165C45.3096 37.4514 43.9595 34.8812 43.9595 32C43.9595 26.9919 48.034 22.9174 53.0423 22.9174C54.8279 22.9174 56.5586 23.4385 58.0475 24.4245C58.4791 24.7104 59.0609 24.5921 59.3467 24.1605C59.6326 23.7288 59.5145 23.1471 59.0827 22.8611C57.2859 21.6711 55.1971 21.0422 53.0421 21.0422C52.3963 21.0422 51.7633 21.0989 51.1478 21.2065C49.168 17.6974 46.2999 14.8274 42.7934 12.85C42.9009 12.2351 42.9574 11.6028 42.9574 10.9575C42.9574 8.80263 42.3284 6.71375 41.1384 4.91687C40.8526 4.48525 40.2709 4.36713 39.8391 4.65287C39.4074 4.93875 39.2893 5.5205 39.5751 5.95213C40.5611 7.44112 41.0824 9.17188 41.0824 10.9575C41.0824 13.8375 39.7335 16.4066 37.636 18.0719C36.8395 15.697 34.6041 14.028 31.9996 14.028C29.4199 14.028 27.169 15.7199 26.3661 18.074C24.2671 16.4089 22.917 13.8388 22.917 10.9575C22.9174 5.9495 26.9919 1.875 32 1.875C33.7856 1.875 35.5165 2.39613 37.0052 3.38225C37.4367 3.66813 38.0186 3.54987 38.3045 3.11825C38.5904 2.68663 38.4723 2.10488 38.0405 1.81887C36.2438 0.629 34.155 0 32 0C25.958 0 21.0424 4.91563 21.0424 10.9576C21.0424 11.6035 21.099 12.2361 21.2066 12.8515C17.702 14.8287 14.8306 17.701 12.8519 21.2079C12.2301 21.0989 11.5969 21.0422 10.9576 21.0422C4.91563 21.0424 0 25.9579 0 32C0 38.0421 4.91563 42.9576 10.9576 42.9576C11.6033 42.9576 12.2359 42.9011 12.8511 42.7935C14.8296 46.3014 17.6985 49.1702 21.2065 51.1489C21.0989 51.7641 21.0422 52.3967 21.0422 53.0424C21.0424 59.0844 25.958 64 32 64C38.042 64 42.9576 59.0844 42.9576 53.0424C42.9576 52.4024 42.9009 51.7685 42.7916 51.146C46.3025 49.1667 49.1719 46.3036 51.1506 42.7938C51.7654 42.9011 52.3973 42.9576 53.0423 42.9576C59.0844 42.9576 64 38.0421 64 32C64 29.845 63.371 27.7563 62.181 25.9594ZM32 15.9032C33.9432 15.9032 35.5869 17.2591 35.9821 19.1187C34.779 19.7083 33.4277 20.0404 32 20.0404C30.5728 20.0404 29.222 19.7085 28.0191 19.1195C28.4165 17.2797 30.074 15.9032 32 15.9032ZM6.97675 40.1618C7.37413 38.3221 9.03163 36.9456 10.9576 36.9456C12.901 36.9456 14.5446 38.3015 14.9397 40.1611C13.7365 40.7506 12.3853 41.0827 10.9576 41.0827C9.53038 41.0826 8.17962 40.7508 6.97675 40.1618ZM28.0191 61.204C28.4165 59.3644 30.074 57.9879 32 57.9879C33.9432 57.9879 35.5869 59.3438 35.9821 61.2034C34.7789 61.7929 33.4277 62.125 32 62.125C30.5728 62.125 29.222 61.7931 28.0191 61.204ZM42.2876 49.2738C41.996 48.4798 41.6126 47.7173 41.1387 47.0018C40.853 46.57 40.2713 46.4519 39.8395 46.7378C39.4077 47.0236 39.2896 47.6053 39.5755 48.0371C40.5615 49.526 41.0827 51.2569 41.0827 53.0425C41.0827 55.9224 39.7339 58.4916 37.6364 60.1569C36.8398 57.782 34.6045 56.1131 32 56.1131C29.4202 56.1131 27.1694 57.8049 26.3665 60.1591C24.2675 58.494 22.9174 55.9238 22.9174 53.0426C22.9174 48.0345 26.9919 43.96 32 43.96C33.7856 43.96 35.5164 44.4811 37.0052 45.4671C37.4367 45.753 38.0186 45.6349 38.3045 45.2031C38.5904 44.7714 38.4723 44.1897 38.0405 43.9039C36.2436 42.7139 34.1549 42.085 31.9999 42.085C27.2821 42.085 23.2512 45.0819 21.7109 49.272C18.8296 47.5557 16.4436 45.1706 14.7273 42.2897C18.9179 40.7496 21.9153 36.7185 21.9153 32.0004C21.9153 29.8455 21.2862 27.7568 20.0964 25.9597C19.8104 25.528 19.2288 25.41 18.797 25.6957C18.3654 25.9816 18.2471 26.5634 18.533 26.9951C19.5191 28.4841 20.0403 30.215 20.0403 32.0005C20.0403 34.8805 18.6914 37.4496 16.5939 39.1149C15.7974 36.74 13.562 35.0711 10.9575 35.0711C8.37775 35.0711 6.12687 36.763 5.324 39.1171C3.22512 37.4514 1.875 34.8812 1.875 32C1.875 26.9919 5.9495 22.9174 10.9576 22.9174C12.7432 22.9174 14.474 23.4385 15.9629 24.4245C16.3944 24.7104 16.9762 24.5921 17.2621 24.1605C17.548 23.7288 17.4299 23.1471 16.9981 22.8611C16.2822 22.3871 15.5196 22.0037 14.7254 21.712C16.4421 18.8309 18.8313 16.443 21.7105 14.7273C23.2506 18.9177 27.2817 21.9153 31.9999 21.9153C36.718 21.9153 40.7491 18.9179 42.2892 14.7274C45.1694 16.4429 47.5556 18.8284 49.2728 21.7105C45.082 23.2505 42.0845 27.2817 42.0845 32C42.0845 36.7181 45.082 40.7494 49.2726 42.2894C47.5561 45.1725 45.1715 47.5569 42.2876 49.2738ZM49.0614 40.1616C49.4587 38.322 51.1164 36.9455 53.0424 36.9455C54.9856 36.9455 56.6293 38.3014 57.0245 40.161C55.8214 40.7505 54.4701 41.0826 53.0424 41.0826C51.6151 41.0826 50.2642 40.7508 49.0614 40.1616Z" fill="white"/>
<path d="M28.0566 8.95327C28.0566 11.1278 29.8256 12.8969 32.0001 12.8969C34.1746 12.8969 35.9436 11.1278 35.9436 8.95327C35.9436 6.77877 34.1746 5.00977 32.0001 5.00977C29.8256 5.00977 28.0566 6.77877 28.0566 8.95327ZM34.0686 8.95327C34.0686 10.0939 33.1408 11.0219 32.0001 11.0219C30.8595 11.0219 29.9316 10.0939 29.9316 8.95327C29.9316 7.81264 30.8595 6.88477 32.0001 6.88477C33.1408 6.88477 34.0686 7.81264 34.0686 8.95327Z" fill="#0585F2"/>
<path d="M32.0001 47.0947C29.8256 47.0947 28.0566 48.8639 28.0566 51.0384C28.0566 53.2129 29.8256 54.9819 32.0001 54.9819C34.1746 54.9819 35.9436 53.2129 35.9436 51.0384C35.9436 48.8639 34.1746 47.0947 32.0001 47.0947ZM32.0001 53.1067C30.8595 53.1067 29.9316 52.1789 29.9316 51.0382C29.9316 49.8976 30.8595 48.9696 32.0001 48.9696C33.1408 48.9696 34.0686 49.8976 34.0686 51.0382C34.0686 52.1789 33.1408 53.1067 32.0001 53.1067Z" fill="#0585F2"/>
</g>
<defs>
<clipPath id="clip0_899_5347">
<rect width="64" height="64" fill="white"/>
</clipPath>
</defs>
</svg>
