<svg width="375" height="497" viewBox="0 0 375 497" fill="none" xmlns="http://www.w3.org/2000/svg">
<g opacity="0.7" filter="url(#filter0_f_1400_17609)">
<path d="M96.4855 207.119C96.563 228.872 114.203 246.508 135.884 246.508C136.643 246.508 137.402 246.491 138.161 246.443C138.436 246.426 138.71 246.426 139.001 246.426C146.95 246.426 153.419 252.894 153.447 260.869C153.458 263.803 152.595 266.526 151.117 268.795C147.052 275.003 144.719 282.443 144.748 290.435C144.825 312.187 162.465 329.823 184.146 329.823C205.826 329.823 223.341 312.187 223.263 290.435C223.235 282.443 220.833 275.003 216.74 268.795C215.23 266.526 214.364 263.787 214.353 260.869C214.325 252.894 220.748 246.426 228.696 246.426C228.971 246.426 229.262 246.426 229.536 246.443L229.553 246.443C230.296 246.491 231.055 246.508 231.815 246.508C253.447 246.507 270.961 228.872 270.883 207.119C270.806 185.366 253.166 167.73 231.485 167.73C209.805 167.73 192.291 185.366 192.368 207.119C192.391 213.489 193.915 219.487 196.599 224.82C197.592 226.765 198.149 228.969 198.157 231.303C198.185 239.278 191.762 245.746 183.814 245.746C175.866 245.746 169.396 239.278 169.368 231.303C169.36 228.969 169.901 226.765 170.88 224.82C173.526 219.503 175.007 213.489 174.985 207.119C174.923 185.366 157.284 167.73 135.603 167.73C113.922 167.73 96.4081 185.366 96.4855 207.119Z" fill="url(#paint0_linear_1400_17609)" fill-opacity="0.9"/>
<path d="M96.4855 207.119C96.563 228.872 114.203 246.508 135.884 246.508C136.643 246.508 137.402 246.491 138.161 246.443C138.436 246.426 138.71 246.426 139.001 246.426C146.95 246.426 153.419 252.894 153.447 260.869C153.458 263.803 152.595 266.526 151.117 268.795C147.052 275.003 144.719 282.443 144.748 290.435C144.825 312.187 162.465 329.823 184.146 329.823C205.826 329.823 223.341 312.187 223.263 290.435C223.235 282.443 220.833 275.003 216.74 268.795C215.23 266.526 214.364 263.787 214.353 260.869C214.325 252.894 220.748 246.426 228.696 246.426C228.971 246.426 229.262 246.426 229.536 246.443L229.553 246.443C230.296 246.491 231.055 246.508 231.815 246.508C253.447 246.507 270.961 228.872 270.883 207.119C270.806 185.366 253.166 167.73 231.485 167.73C209.805 167.73 192.291 185.366 192.368 207.119C192.391 213.489 193.915 219.487 196.599 224.82C197.592 226.765 198.149 228.969 198.157 231.303C198.185 239.278 191.762 245.746 183.814 245.746C175.866 245.746 169.396 239.278 169.368 231.303C169.36 228.969 169.901 226.765 170.88 224.82C173.526 219.503 175.007 213.489 174.985 207.119C174.923 185.366 157.284 167.73 135.603 167.73C113.922 167.73 96.4081 185.366 96.4855 207.119Z" fill="url(#paint1_linear_1400_17609)" fill-opacity="0.9"/>
</g>
<defs>
<filter id="filter0_f_1400_17609" x="-70.4973" y="0.747864" width="508.364" height="496.058" filterUnits="userSpaceOnUse" color-interpolation-filters="sRGB">
<feFlood flood-opacity="0" result="BackgroundImageFix"/>
<feBlend mode="normal" in="SourceGraphic" in2="BackgroundImageFix" result="shape"/>
<feGaussianBlur stdDeviation="83.4913" result="effect1_foregroundBlur_1400_17609"/>
</filter>
<linearGradient id="paint0_linear_1400_17609" x1="232.191" y1="325.045" x2="70.2686" y2="250.541" gradientUnits="userSpaceOnUse">
<stop stop-color="#76B4F4"/>
<stop offset="0.270833" stop-color="#519EF3"/>
<stop offset="0.541667" stop-color="#76B4F4"/>
<stop offset="0.755208" stop-color="#63B5FB"/>
<stop offset="0.979167" stop-color="#63B5FB"/>
</linearGradient>
<linearGradient id="paint1_linear_1400_17609" x1="232.191" y1="325.045" x2="70.2686" y2="250.541" gradientUnits="userSpaceOnUse">
<stop stop-color="#0685F1"/>
<stop offset="1" stop-color="#62C4D2" stop-opacity="0"/>
</linearGradient>
</defs>
</svg>
