<svg width="925" height="894" viewBox="0 0 925 894" fill="none" xmlns="http://www.w3.org/2000/svg">
<g opacity="0.7" filter="url(#filter0_f_484_3949)">
<path d="M250.497 345.741C250.685 398.572 293.527 441.403 346.182 441.403C348.026 441.403 349.87 441.364 351.713 441.245C352.38 441.206 353.047 441.206 353.753 441.206C373.058 441.206 388.769 456.913 388.838 476.282C388.863 483.407 386.768 490.021 383.178 495.532C373.305 510.61 367.641 528.679 367.71 548.087C367.898 600.917 410.739 643.748 463.394 643.748C516.049 643.748 558.585 600.917 558.397 548.087C558.328 528.679 552.496 510.61 542.555 495.532C538.886 490.021 536.783 483.368 536.758 476.282C536.689 456.913 552.288 441.206 571.592 441.206C572.259 441.206 572.965 441.206 573.633 441.245L573.672 441.245C575.477 441.363 577.321 441.403 579.165 441.403C631.703 441.403 674.239 398.572 674.051 345.741C673.863 292.911 631.021 250.08 578.366 250.08C525.711 250.08 483.175 292.911 483.363 345.741C483.418 361.213 487.119 375.778 493.639 388.73C496.05 393.454 497.403 398.808 497.423 404.477C497.492 423.845 481.893 439.553 462.588 439.553C443.284 439.553 427.573 423.845 427.504 404.477C427.484 398.808 428.799 393.454 431.176 388.73C437.603 375.818 441.2 361.213 441.145 345.741C440.996 292.911 398.155 250.08 345.5 250.08C292.845 250.08 250.309 292.911 250.497 345.741Z" fill="url(#paint0_linear_484_3949)" fill-opacity="0.9"/>
<path d="M250.497 345.741C250.685 398.572 293.527 441.403 346.182 441.403C348.026 441.403 349.87 441.364 351.713 441.245C352.38 441.206 353.047 441.206 353.753 441.206C373.058 441.206 388.769 456.913 388.838 476.282C388.863 483.407 386.768 490.021 383.178 495.532C373.305 510.61 367.641 528.679 367.71 548.087C367.898 600.917 410.739 643.748 463.394 643.748C516.049 643.748 558.585 600.917 558.397 548.087C558.328 528.679 552.496 510.61 542.555 495.532C538.886 490.021 536.783 483.368 536.758 476.282C536.689 456.913 552.288 441.206 571.592 441.206C572.259 441.206 572.965 441.206 573.633 441.245L573.672 441.245C575.477 441.363 577.321 441.403 579.165 441.403C631.703 441.403 674.239 398.572 674.051 345.741C673.863 292.911 631.021 250.08 578.366 250.08C525.711 250.08 483.175 292.911 483.363 345.741C483.418 361.213 487.119 375.778 493.639 388.73C496.05 393.454 497.403 398.808 497.423 404.477C497.492 423.845 481.893 439.553 462.588 439.553C443.284 439.553 427.573 423.845 427.504 404.477C427.484 398.808 428.799 393.454 431.176 388.73C437.603 375.818 441.2 361.213 441.145 345.741C440.996 292.911 398.155 250.08 345.5 250.08C292.845 250.08 250.309 292.911 250.497 345.741Z" fill="url(#paint1_linear_484_3949)" fill-opacity="0.9"/>
</g>
<defs>
<filter id="filter0_f_484_3949" x="0.49707" y="0.0800781" width="923.555" height="893.668" filterUnits="userSpaceOnUse" color-interpolation-filters="sRGB">
<feFlood flood-opacity="0" result="BackgroundImageFix"/>
<feBlend mode="normal" in="SourceGraphic" in2="BackgroundImageFix" result="shape"/>
<feGaussianBlur stdDeviation="125" result="effect1_foregroundBlur_484_3949"/>
</filter>
<linearGradient id="paint0_linear_484_3949" x1="580.079" y1="632.145" x2="186.825" y2="451.199" gradientUnits="userSpaceOnUse">
<stop stop-color="#76B4F4"/>
<stop offset="0.270833" stop-color="#519EF3"/>
<stop offset="0.541667" stop-color="#76B4F4"/>
<stop offset="0.755208" stop-color="#63B5FB"/>
<stop offset="0.979167" stop-color="#63B5FB"/>
</linearGradient>
<linearGradient id="paint1_linear_484_3949" x1="580.079" y1="632.145" x2="186.825" y2="451.199" gradientUnits="userSpaceOnUse">
<stop stop-color="#0685F1"/>
<stop offset="1" stop-color="#62C4D2" stop-opacity="0"/>
</linearGradient>
</defs>
</svg>
