<svg width="365" height="220" viewBox="0 0 365 220" fill="none" xmlns="http://www.w3.org/2000/svg">
<g opacity="0.2">
<path d="M233.675 54.3294C233.572 83.1476 210.212 106.511 181.501 106.511C180.495 106.511 179.49 106.49 178.485 106.425C178.121 106.404 177.757 106.404 177.372 106.404C166.846 106.404 158.28 114.972 158.242 125.537C158.228 129.424 159.371 133.032 161.328 136.038C166.712 144.263 169.8 154.119 169.762 164.706C169.66 193.524 146.3 216.888 117.589 216.888C88.8777 216.888 65.684 193.524 65.7866 164.706C65.8243 154.119 69.0043 144.263 74.4249 136.038C76.4253 133.032 77.5721 129.403 77.5858 125.537C77.6235 114.972 69.1177 106.404 58.5917 106.404C58.228 106.404 57.8429 106.404 57.4792 106.425H57.4578C56.4734 106.49 55.4678 106.511 54.4623 106.511C25.8155 106.511 2.62178 83.1476 2.72438 54.3294C2.82698 25.5112 26.187 2.14746 54.898 2.14746C83.609 2.14746 106.803 25.5112 106.7 54.3294C106.67 62.7687 104.652 70.7141 101.097 77.7791C99.7827 80.356 99.0449 83.2765 99.0339 86.3687C98.9963 96.934 107.502 105.502 118.028 105.502C128.554 105.502 137.121 96.934 137.158 86.3687C137.169 83.2765 136.452 80.356 135.156 77.7791C131.651 70.7356 129.69 62.7687 129.72 54.3294C129.801 25.5112 153.161 2.14746 181.872 2.14746C210.583 2.14746 233.777 25.5112 233.675 54.3294Z" fill="white"/>
<path d="M256.674 54.3294C256.644 62.7687 258.605 70.7141 262.11 77.7791C270.182 93.9705 286.422 105.33 305.459 106.425C306.465 106.49 307.47 106.511 308.476 106.511C337.187 106.511 360.547 83.1476 360.649 54.3294C360.752 25.5112 337.558 2.14746 308.847 2.14746C280.136 2.14746 256.776 25.5112 256.674 54.3294Z" fill="#D4D4D4"/>
<path d="M201.443 136.038C196.022 144.262 192.842 154.119 192.804 164.705C192.702 193.524 215.896 216.887 244.607 216.887C273.318 216.887 296.678 193.524 296.78 164.705C296.818 154.119 293.708 144.262 288.346 136.038C279.09 121.886 263.142 112.523 244.978 112.523C226.814 112.523 210.778 121.865 201.443 136.038Z" fill="#F5F5F5"/>
</g>
</svg>
