<svg width="59" height="36" viewBox="0 0 59 36" fill="none" xmlns="http://www.w3.org/2000/svg">
<path d="M37.5798 9.34425C37.5798 14.0609 33.793 17.8848 29.1222 17.8848C28.9586 17.8848 28.795 17.8813 28.6315 17.8707C28.5723 17.8672 28.5131 17.8672 28.4505 17.8672C26.7381 17.8672 25.3493 19.2696 25.3493 20.9988C25.3493 21.6349 25.5373 22.2254 25.8575 22.7174C26.7381 24.0635 27.2462 25.6767 27.2462 27.4094C27.2462 32.1261 23.4594 35.95 18.7886 35.95C14.1178 35.95 10.331 32.1261 10.331 27.4094C10.331 25.6767 10.8426 24.0635 11.7197 22.7174C12.0434 22.2254 12.2279 21.6314 12.2279 20.9988C12.2279 19.2696 10.8391 17.8672 9.12673 17.8672C9.06756 17.8672 9.00491 17.8672 8.94574 17.8707H8.94226C8.78216 17.8813 8.61857 17.8848 8.45499 17.8848C3.7946 17.8848 0.0078125 14.0609 0.0078125 9.34425C0.0078125 4.62762 3.7946 0.803711 8.46543 0.803711C13.1363 0.803711 16.9231 4.62762 16.9231 9.34425C16.9231 10.7255 16.5994 12.0259 16.0251 13.1822C15.8128 13.604 15.6944 14.082 15.6944 14.5881C15.6944 16.3173 17.0832 17.7196 18.7956 17.7196C20.508 17.7196 21.8967 16.3173 21.8967 14.5881C21.8967 14.082 21.7784 13.604 21.566 13.1822C20.9918 12.0294 20.6681 10.7255 20.6681 9.34425C20.6646 4.62762 24.4514 0.803711 29.1222 0.803711C33.793 0.803711 37.5798 4.62762 37.5798 9.34425Z" fill="#0685F1"/>
<path d="M41.3223 9.34424C41.3223 10.7255 41.646 12.0259 42.2202 13.1822C43.5428 15.8322 46.1915 17.6915 49.2891 17.8707C49.4527 17.8813 49.6163 17.8848 49.7799 17.8848C54.4507 17.8848 58.2375 14.0609 58.2375 9.34424C58.2375 4.62762 54.4507 0.803711 49.7799 0.803711C45.1091 0.803711 41.3223 4.62762 41.3223 9.34424Z" fill="#63B5FB"/>
<path d="M32.3838 22.7177C31.5068 24.0638 30.9951 25.677 30.9951 27.4097C30.9951 32.1263 34.7819 35.9502 39.4528 35.9502C44.1236 35.9502 47.9104 32.1263 47.9104 27.4097C47.9104 25.677 47.3988 24.0638 46.5217 22.7177C45.0077 20.4015 42.4077 18.8691 39.4528 18.8691C36.4978 18.8691 33.8944 20.398 32.3838 22.7177Z" fill="#319DFA"/>
</svg>
